<?xml version="1.0" encoding="UTF-8" standalone="no"?>
<svg
   class="plot"
   fill="currentColor"
   text-anchor="middle"
   width="640"
   height="400"
   viewBox="0 0 640 400"
   version="1.1"
   id="svg164"
   sodipodi:docname="lj_plot.svg"
   inkscape:version="1.1.1 (1:1.1+202109281949+c3084ef5ed)"
   xmlns:inkscape="http://www.inkscape.org/namespaces/inkscape"
   xmlns:sodipodi="http://sodipodi.sourceforge.net/DTD/sodipodi-0.dtd"
   xmlns="http://www.w3.org/2000/svg"
   xmlns:svg="http://www.w3.org/2000/svg">
  <defs
     id="defs168">
    <clipPath
       clipPathUnits="userSpaceOnUse"
       id="clipPath1155">
      <rect
         style="fill:#000000;fill-opacity:0.5;stroke:none;stroke-width:4.49104;stroke-miterlimit:10;paint-order:markers fill stroke;stop-color:#000000"
         id="rect1157"
         width="640"
         height="400"
         x="0"
         y="0" />
    </clipPath>
    <clipPath
       clipPathUnits="userSpaceOnUse"
       id="clipPath1159">
      <rect
         style="fill:#000000;fill-opacity:0.5;stroke:none;stroke-width:4.49104;stroke-miterlimit:10;paint-order:markers fill stroke;stop-color:#000000"
         id="rect1161"
         width="640"
         height="400"
         x="0"
         y="0" />
    </clipPath>
  </defs>
  <sodipodi:namedview
     id="namedview166"
     pagecolor="#ffffff"
     bordercolor="#666666"
     borderopacity="1.0"
     inkscape:pageshadow="2"
     inkscape:pageopacity="0.0"
     inkscape:pagecheckerboard="0"
     showgrid="false"
     inkscape:zoom="1.04125"
     inkscape:cx="319.80792"
     inkscape:cy="200.2401"
     inkscape:window-width="1920"
     inkscape:window-height="1014"
     inkscape:window-x="0"
     inkscape:window-y="34"
     inkscape:window-maximized="1"
     inkscape:current-layer="svg164" />
  <g
     transform="translate(40,0)"
     fill="none"
     text-anchor="end"
     id="g90">
    <g
       class="tick"
       opacity="1"
       transform="translate(0,354.0909090909091)"
       id="g8">
      <line
         stroke="currentColor"
         x2="-6"
         id="line2" />
      <line
         stroke="currentColor"
         x2="580"
         stroke-opacity="0.1"
         id="line4" />
      <text
         fill="currentColor"
         x="-9"
         dy="0.32em"
         id="text6">−2.5</text>
    </g>
    <g
       class="tick"
       opacity="1"
       transform="translate(0,322.2727272727273)"
       id="g16">
      <line
         stroke="currentColor"
         x2="-6"
         id="line10" />
      <line
         stroke="currentColor"
         x2="580"
         stroke-opacity="0.1"
         id="line12" />
      <text
         fill="currentColor"
         x="-9"
         dy="0.32em"
         id="text14">−2.0</text>
    </g>
    <g
       class="tick"
       opacity="1"
       transform="translate(0,290.45454545454544)"
       id="g24">
      <line
         stroke="currentColor"
         x2="-6"
         id="line18" />
      <line
         stroke="currentColor"
         x2="580"
         stroke-opacity="0.1"
         id="line20" />
      <text
         fill="currentColor"
         x="-9"
         dy="0.32em"
         id="text22">−1.5</text>
    </g>
    <g
       class="tick"
       opacity="1"
       transform="translate(0,258.6363636363637)"
       id="g32">
      <line
         stroke="currentColor"
         x2="-6"
         id="line26" />
      <line
         stroke="currentColor"
         x2="580"
         stroke-opacity="0.1"
         id="line28" />
      <text
         fill="currentColor"
         x="-9"
         dy="0.32em"
         id="text30">−1.0</text>
    </g>
    <g
       class="tick"
       opacity="1"
       transform="translate(0,226.81818181818178)"
       id="g40">
      <line
         stroke="currentColor"
         x2="-6"
         id="line34" />
      <line
         stroke="currentColor"
         x2="580"
         stroke-opacity="0.1"
         id="line36" />
      <text
         fill="currentColor"
         x="-9"
         dy="0.32em"
         id="text38">−0.5</text>
    </g>
    <g
       class="tick"
       opacity="1"
       transform="translate(0,195)"
       id="g48">
      <line
         stroke="currentColor"
         x2="-6"
         id="line42" />
      <line
         stroke="currentColor"
         x2="580"
         stroke-opacity="0.1"
         id="line44" />
      <text
         fill="currentColor"
         x="-9"
         dy="0.32em"
         id="text46">0.0</text>
    </g>
    <g
       class="tick"
       opacity="1"
       transform="translate(0,163.18181818181816)"
       id="g56">
      <line
         stroke="currentColor"
         x2="-6"
         id="line50" />
      <line
         stroke="currentColor"
         x2="580"
         stroke-opacity="0.1"
         id="line52" />
      <text
         fill="currentColor"
         x="-9"
         dy="0.32em"
         id="text54">0.5</text>
    </g>
    <g
       class="tick"
       opacity="1"
       transform="translate(0,131.36363636363637)"
       id="g64">
      <line
         stroke="currentColor"
         x2="-6"
         id="line58" />
      <line
         stroke="currentColor"
         x2="580"
         stroke-opacity="0.1"
         id="line60" />
      <text
         fill="currentColor"
         x="-9"
         dy="0.32em"
         id="text62">1.0</text>
    </g>
    <g
       class="tick"
       opacity="1"
       transform="translate(0,99.54545454545455)"
       id="g72">
      <line
         stroke="currentColor"
         x2="-6"
         id="line66" />
      <line
         stroke="currentColor"
         x2="580"
         stroke-opacity="0.1"
         id="line68" />
      <text
         fill="currentColor"
         x="-9"
         dy="0.32em"
         id="text70">1.5</text>
    </g>
    <g
       class="tick"
       opacity="1"
       transform="translate(0,67.72727272727272)"
       id="g80">
      <line
         stroke="currentColor"
         x2="-6"
         id="line74" />
      <line
         stroke="currentColor"
         x2="580"
         stroke-opacity="0.1"
         id="line76" />
      <text
         fill="currentColor"
         x="-9"
         dy="0.32em"
         id="text78">2.0</text>
    </g>
    <g
       class="tick"
       opacity="1"
       transform="translate(0,35.90909090909089)"
       id="g88">
      <line
         stroke="currentColor"
         x2="-6"
         id="line82" />
      <line
         stroke="currentColor"
         x2="580"
         stroke-opacity="0.1"
         id="line84" />
      <text
         fill="currentColor"
         x="-9"
         dy="0.32em"
         id="text86">2.5</text>
    </g>
  </g>
  <g
     transform="translate(0,370)"
     fill="none"
     text-anchor="middle"
     id="g142">
    <g
       class="tick"
       opacity="1"
       transform="translate(78.66666666666669,0)"
       id="g96">
      <line
         stroke="currentColor"
         y2="6"
         id="line92" />
      <text
         fill="currentColor"
         y="9"
         dy="0.71em"
         id="text94">0.8</text>
    </g>
    <g
       class="tick"
       opacity="1"
       transform="translate(156.00000000000003,0)"
       id="g102">
      <line
         stroke="currentColor"
         y2="6"
         id="line98" />
      <text
         fill="currentColor"
         y="9"
         dy="0.71em"
         id="text100">0.9</text>
    </g>
    <g
       class="tick"
       opacity="1"
       transform="translate(233.33333333333331,0)"
       id="g108">
      <line
         stroke="currentColor"
         y2="6"
         id="line104" />
      <text
         fill="currentColor"
         y="9"
         dy="0.71em"
         id="text106">1.0</text>
    </g>
    <g
       class="tick"
       opacity="1"
       transform="translate(310.66666666666674,0)"
       id="g114">
      <line
         stroke="currentColor"
         y2="6"
         id="line110" />
      <text
         fill="currentColor"
         y="9"
         dy="0.71em"
         id="text112">1.1</text>
    </g>
    <g
       class="tick"
       opacity="1"
       transform="translate(388,0)"
       id="g120">
      <line
         stroke="currentColor"
         y2="6"
         id="line116" />
      <text
         fill="currentColor"
         y="9"
         dy="0.71em"
         id="text118">1.2</text>
    </g>
    <g
       class="tick"
       opacity="1"
       transform="translate(465.33333333333337,0)"
       id="g126">
      <line
         stroke="currentColor"
         y2="6"
         id="line122" />
      <text
         fill="currentColor"
         y="9"
         dy="0.71em"
         id="text124">1.3</text>
    </g>
    <g
       class="tick"
       opacity="1"
       transform="translate(542.6666666666666,0)"
       id="g132">
      <line
         stroke="currentColor"
         y2="6"
         id="line128" />
      <text
         fill="currentColor"
         y="9"
         dy="0.71em"
         id="text130">1.4</text>
    </g>
    <g
       class="tick"
       opacity="1"
       transform="translate(620,0)"
       id="g138">
      <line
         stroke="currentColor"
         y2="6"
         id="line134" />
      <text
         fill="currentColor"
         y="9"
         dy="0.71em"
         id="text136">1.5</text>
    </g>
    <text
       fill="currentColor"
       transform="translate(640,30)"
       dy="-0.32em"
       text-anchor="end"
       id="text140">Normalized Interatomic Distance, ρ →</text>
  </g>
  <g
     fill="none"
     stroke="#4e79a7"
     stroke-width="1.5"
     stroke-miterlimit="1"
     id="g146"
     clip-path="url(#clipPath1159)">
    <path
       d="M40,-1098.8532986899597L40.96666666666665,-1066.2155959761822L41.93333333333329,-1034.3460947004962L42.90000000000002,-1003.2263148770842L43.866666666666674,-972.8382419277176L44.83333333333332,-943.1643143275321L45.79999999999996,-914.1874115968554L46.766666666666694,-885.8908426288235L47.73333333333334,-858.2583343429202L48.69999999999999,-831.2740206548075L49.66666666666663,-804.9224317532086L50.63333333333337,-779.1884836747886L51.600000000000016,-754.0574681683411L52.566666666666656,-729.5150428397785L53.5333333333333,-705.5472215697769L54.500000000000036,-682.140365196087L55.466666666666676,-659.2811724528376L56.43333333333332,-636.9566711593277L57.39999999999998,-615.1542096511091L58.36666666666671,-593.86144844631L59.33333333333334,-573.0663521404155L60.3,-552.7571815228786L61.26666666666664,-532.9224859092027L62.23333333333338,-513.5510956822598L63.20000000000002,-494.63211503685255L64.16666666666667,-476.15491492165904L65.13333333333331,-458.10912617293445L66.09999999999997,-440.4846328344632L67.06666666666669,-423.27156565843904L68.03333333333333,-406.4602957821271L68.99999999999997,-390.0414285752746L69.96666666666664,-374.005797653443L70.93333333333337,-358.344459052527L71.9,-343.04868555990583L72.86666666666665,-328.1099611977723L73.8333333333333,-313.51997585435976L74.80000000000003,-299.27062005887456L75.76666666666668,-285.35397989609964L76.73333333333332,-271.7623320567118L77.69999999999997,-258.48813901953207L78.66666666666669,-245.524044361981L79.63333333333335,-232.8628681951638L80.6,-220.49760272007842L81.56666666666663,-208.42140790158842L82.53333333333337,-196.62760725685314L83.50000000000001,-185.10968375504518L84.46666666666667,-173.86127582523864L85.43333333333331,-162.8761734694878L86.40000000000003,-152.14831447816164L87.3666666666667,-141.67178074471326L88.33333333333333,-131.44079467712336L89.29999999999998,-121.44971570336197L90.26666666666662,-111.6930368682673L91.23333333333336,-102.16538151932667L92.2,-92.86150007892078L93.16666666666666,-83.77626690064609L94.13333333333338,-74.90467720742373L95.10000000000002,-66.24184410915316L96.06666666666666,-57.78299569772473L97.03333333333333,-49.52347221729808L97.99999999999996,-41.45872330778204L98.9666666666667,-33.58430531952823L99.93333333333334,-25.895878697305836L100.89999999999999,-18.389205431668206L101.86666666666663,-11.060146575897274L102.83333333333337,-3.9046598267417814L103.80000000000001,3.0812028327670298L104.76666666666665,9.901297430108384L105.7333333333333,16.559390241287367L106.70000000000005,23.059159971664016L107.66666666666669,29.404199881127507L108.63333333333333,35.59801985511444L109.59999999999998,41.644048422915205L110.56666666666672,47.545634724684575L111.53333333333335,53.306050428522155L112.5,58.92849159896302L113.46666666666664,64.41608051816326L114.43333333333331,69.77186746104621L115.40000000000002,74.99883242563084L116.36666666666667,80.09988681972882L117.33333333333331,85.07787510517394L118.30000000000005,89.93557640069835L119.2666666666667,94.67570604455327L120.23333333333333,99.30091711793963L121.19999999999999,103.8138019302743L122.16666666666663,108.21689346730162L123.13333333333337,112.51266680302567L124.10000000000001,116.70354047641028L125.06666666666666,120.79187783377625L126.0333333333333,124.77998833778653L127.00000000000003,128.67012884389777L127.9666666666667,132.4645048451243L128.93333333333334,136.16527168594604L129.89999999999998,139.7745357461559L130.8666666666667,143.2943555954351L131.83333333333334,146.7267431194113L132.8,150.07366461794547L133.76666666666665,153.337041876359L134.73333333333338,156.51875321030644L135.70000000000002,159.6206344849723L136.66666666666666,162.6444801092561L137.63333333333333,165.59204400558679L138.59999999999997,168.4650405559965L139.5666666666667,171.26514552506265L140.53333333333333,173.99399696031023L141.49999999999997,176.65319607065658L142.46666666666673,179.24430808345417L143.43333333333337,181.76886308068316L144.4,184.2283568148257L145.36666666666667,186.62425150493658L146.33333333333331,188.9579766134181L147.3,191.23092960398822L148.26666666666665,193.44447668131832L149.23333333333335,195.59995351280966L150.20000000000005,197.6986659329556L151.16666666666669,199.74189063073302L152.13333333333333,201.7308758204532L153.1,203.66684189648535L154.06666666666663,205.55098207226322L155.03333333333327,207.38446300396745L156.00000000000003,209.1684253992713L156.96666666666667,210.90398461152213L157.9333333333333,212.59223121972687L158.90000000000003,214.23423159469414L159.86666666666667,215.83102845168037L160.83333333333334,217.38364138987814L161.79999999999998,218.89306741907296L162.76666666666662,220.36028147378977L163.73333333333335,221.78623691523967L164.70000000000002,223.1718660213702L165.66666666666666,224.5180804653156L166.63333333333338,225.82577178253274L167.60000000000002,227.09581182690394L168.56666666666666,228.32905321608018L169.5333333333333,229.5263297663295L170.49999999999997,230.68845691714947L171.4666666666667,231.81623214589686L172.43333333333337,232.91043537267916L173.4,233.97182935574844L174.36666666666673,235.00116007762998L175.33333333333337,235.99915712221235L176.3,236.96653404302205L177.26666666666665,237.90398872289694L178.23333333333332,238.81220372526866L179.19999999999996,239.69184663725954L180.16666666666669,240.5435704047933L181.13333333333333,241.36801365991334L182.09999999999997,242.1658010404991L183.0666666666667,242.93754350256475L184.03333333333336,243.6838386253189L185,244.4052709091639L185.96666666666667,245.1024120668017L186.93333333333328,245.77582130761562L187.90000000000003,246.42604561549007L188.86666666666667,247.05362002022486L189.83333333333331,247.65906786270062L190.80000000000004,248.24290105394408L191.76666666666668,248.8056203282401L192.73333333333335,249.3477154904345L193.7,249.8696656575648L194.66666666666663,250.37193949495747L195.63333333333333,250.85499544692112L196.6,251.31928196216722L197.56666666666666,251.76523771408324L198.5333333333334,252.19329181598005L199.50000000000006,252.60386403143502L200.46666666666667,252.9973649798459L201.43333333333334,253.3741963373105L202.39999999999998,253.73475103294194L203.36666666666662,254.07941344072867L204.33333333333334,254.40855956704414L205.29999999999998,254.72255723390938L206.26666666666665,255.02176625810839L207.23333333333338,255.3065386262548L208.20000000000002,255.5772186659049L209.16666666666669,255.83414321280966L210.13333333333333,256.07764177439793L211.09999999999997,256.3080366895773L212.06666666666666,256.52564328494196L213.03333333333333,256.73077002746794L214,256.9237186737821L214.96666666666673,257.1047844160814L215.9333333333334,257.27425602478354L216.9,257.4324159879837L217.86666666666667,257.5795406477915L218.8333333333333,257.7159003336227L219.80000000000004,257.84175949251477L220.76666666666668,257.9573768165359L221.73333333333332,258.0630053673553L222.70000000000005,258.1588926980406L223.6666666666667,258.24528097214596L224.63333333333333,258.3224070801546L225.6,258.3905027533356L226.5666666666666,258.4497946750763L227.53333333333327,258.50050458974647L228.5,258.54284940915363L229.46666666666667,258.5770413166427L230.43333333333334,258.6032878688953L231.40000000000003,258.62179209548145L232.36666666666667,258.63275259621497L233.33333333333331,258.6363636363637L234.29999999999998,258.6328152397613L235.26666666666662,258.62229327987296L236.23333333333346,258.60497956885683L237.1999999999999,258.5810519446707L238.16666666666674,258.55068435626646L239.13333333333338,258.5140469469167L240.10000000000002,258.47130613571613L241.06666666666666,258.4226246972984L242.03333333333333,258.36816183980955L242.99999999999994,258.3080732811782L243.9666666666666,258.24251132371984L244.93333333333345,258.171624927113L245.8999999999999,258.09555977978624L246.86666666666673,258.0144583687486L247.83333333333337,257.9284600479014L248.8,257.83770110486455L249.76666666666665,257.74231482634985L250.73333333333332,257.6424315621169L251.69999999999996,257.53817878753944L252.6666666666666,257.42968116481734L253.63333333333338,257.3170606028616L254.60000000000005,257.20043631588425L255.56666666666672,257.07992488072045L256.53333333333336,256.9556402929122L257.5,256.8276940215819L258.46666666666664,256.6961950631204L259.4333333333333,256.5612499937191L260.4000000000001,256.42296302076943L261.3666666666666,256.28143603315647L262.33333333333337,256.1367686504701L263.30000000000007,255.9890582711593L264.26666666666665,255.8384001196508L265.23333333333335,255.68488729245746L266.2,255.52861080329762L267.16666666666663,255.369659627247L268.13333333333327,255.2081207439449L269.10000000000014,255.04407917987638L270.06666666666655,254.87761804974966L271.0333333333334,254.70881859698875L272.00000000000006,254.5377602333624L272.9666666666667,254.36452057776626L273.93333333333334,254.18917549417776L274.9,254.01179912880318L275.8666666666666,253.8324639464324L276.83333333333326,253.65124076601992L277.80000000000007,253.46819879550935L278.7666666666667,253.28340566591777L279.73333333333335,253.0969274646951L280.7,252.90882876837637L281.6666666666667,252.71917267454018L282.63333333333327,252.52802083309018L283.59999999999997,252.3354334768734L284.5666666666668,252.14146945165012L285.53333333333325,251.9461862454298L286.50000000000006,251.74964001718584L287.4666666666667,251.55188562496386L288.4333333333334,251.3529766533961L289.40000000000003,251.15296544063457L290.3666666666667,250.95190310471602L291.3333333333333,250.74983956937118L292.29999999999995,250.5468235892893L293.26666666666677,250.34290277485135L294.23333333333323,250.13812361634166L295.20000000000005,249.93253150765022L296.1666666666667,249.72617076947753L297.1333333333333,249.5190846720499L298.09999999999997,249.31131545735911L299.0666666666666,249.1029043609342L300.0333333333333,248.8938916331565L300.99999999999994,248.68431656012805L301.96666666666675,248.47421748410173L302.9333333333334,248.26363182348385L303.90000000000003,248.05259609241733L304.86666666666673,247.84114591995566L305.8333333333333,247.62931606883456L306.8,247.41714045385226L307.76666666666665,247.2046521598645L308.73333333333346,246.99188345940414L309.69999999999993,246.77886582993258L310.66666666666674,246.56562997073073L311.6333333333334,246.35220581943858L312.6,246.138622568248L313.56666666666666,245.92490867975968L314.5333333333333,245.7110919025085L315.49999999999994,245.497199286166L316.46666666666664,245.28325719642586L317.43333333333345,245.0692913295801L318.3999999999999,244.85532672679116L319.36666666666673,244.64138778806807L320.33333333333337,244.42749828595126L321.30000000000007,244.21368137891335L322.26666666666665,243.99995962448108L323.23333333333335,243.78635499208553L324.19999999999993,243.5728888756446L325.16666666666663,243.3595821058847L326.1333333333334,243.14645496240692L327.1000000000001,242.93352718550307L328.0666666666667,242.7208179877257L329.03333333333336,242.5083460652196L330,242.29612960881752L330.96666666666664,242.0841863149066L331.93333333333334,241.87253339606906L332.90000000000015,241.66118759150334L333.86666666666656,241.45016517722897L334.8333333333334,241.23948197608007L335.80000000000007,241.029153367493L336.76666666666665,240.8191942970902L337.73333333333335,240.60961928606721L338.7,240.4004424403842L339.66666666666663,240.1916774597686L340.6333333333332,239.9833376465312L341.6000000000001,239.77543591419996L342.56666666666655,239.5679847959754L343.53333333333336,239.36099645301184L344.5,239.1544826825268L345.4666666666667,238.94845492574373L346.43333333333334,238.74292427566976L347.4,238.53790148471396L348.3666666666667,238.33339697214754L349.33333333333326,238.12942083141027L350.30000000000007,237.92598283726616L351.26666666666665,237.72309245281164L352.23333333333335,237.52075883633844L353.2,237.31899084805585L354.16666666666663,237.1177970566731L355.1333333333333,236.91718574584738L356.09999999999997,236.7171649204971L357.0666666666668,236.5177423129865L358.03333333333325,236.31892538918174L359.0000000000001,236.12072135438183L359.9666666666667,235.92313715912852L360.93333333333334,235.72617950489462L361.90000000000003,235.52985484965612L362.8666666666667,235.33416941334895L363.8333333333333,235.13912918321304L364.8,234.94473991902652L365.76666666666677,234.75100715823135L366.73333333333323,234.55793622095356L367.7,234.36553221491954L368.6666666666667,234.1738000402713L369.6333333333333,233.98274439428175L370.59999999999997,233.79236977597336L371.56666666666666,233.6026804906404L372.5333333333333,233.41368065427866L373.4999999999999,233.22537419792343L374.46666666666675,233.0377648718975L375.43333333333345,232.8508562499719L376.40000000000003,232.66465173344014L377.3666666666667,232.47915455510852L378.33333333333337,232.29436778320363L379.3,232.11029432519962L380.26666666666665,231.92693693156534L381.2333333333334,231.74429819943475L382.19999999999993,231.56238057620115L383.16666666666674,231.38118636303636L384.1333333333333,231.20071771833778L385.1,231.02097666110387L386.06666666666666,230.84196507423903L387.0333333333333,230.66368470779068L388,230.48613718211882L388.96666666666664,230.30932399099987L389.93333333333345,230.1332465046659L390.8999999999999,229.95790597278108L391.8666666666668,229.78330352735588L392.83333333333337,229.6094401856009L393.8,229.43631685272135L394.76666666666665,229.26393432465298L395.73333333333335,229.09229329074185L396.69999999999993,228.9213943363672L397.6666666666666,228.75123794551064L398.63333333333344,228.58182450327087L399.6000000000001,228.4131542983269L400.56666666666666,228.2452275253485L401.53333333333336,228.07804428735784L402.5,227.91160459804024L403.46666666666664,227.7459083840079L404.43333333333334,227.58095548701496L405.40000000000015,227.41674566612716L406.36666666666656,227.2532785998457L407.3333333333334,227.09055388818612L408.30000000000007,226.92857105471413L409.26666666666665,226.76732954853816L410.23333333333335,226.60682874626028L411.2,226.44706795388603L412.16666666666663,226.28804640869382L413.1333333333332,226.12976328106524L414.1000000000001,225.97221767627616L415.06666666666655,225.815408636251L416.03333333333336,225.65933514127832L417,225.50399611169203L417.9666666666667,225.34939040951528L418.93333333333334,225.19551684007047L419.9,225.04237415355485L420.8666666666667,224.88996104658227L421.83333333333326,224.7382761636928L422.80000000000007,224.58731809882977L423.76666666666665,224.43708539678488L424.73333333333335,224.2875765546138L425.7,224.13879002301977L426.66666666666663,223.99072420770912L427.6333333333333,223.8433774707167L428.59999999999997,223.6967481317036L429.5666666666668,223.55083446922623L430.53333333333325,223.40563472197923L431.5000000000001,223.26114709000984L432.4666666666667,223.11736973590837L433.43333333333334,222.97430078597074L434.40000000000003,222.83193833133745L435.3666666666667,222.6902804291069L436.3333333333333,222.54932510342525L437.3,222.40907034655208L438.26666666666677,222.26951411990305L439.23333333333323,222.13065435507022L440.2,221.99248895481898L441.1666666666667,221.85501579406454L442.1333333333333,221.71823272082625L443.09999999999997,221.5821375571609L444.06666666666666,221.44672810007583L445.0333333333335,221.31200212242183L445.9999999999999,221.17795737376625L446.96666666666675,221.04459158124715L447.9333333333332,220.9119024504077L448.90000000000003,220.77988766601294L449.8666666666667,220.6485448928482L450.83333333333337,220.51787177649908L451.8,220.38786594411494L452.76666666666665,220.2585250051545L453.7333333333334,220.12984655211528L454.69999999999993,220.0018281612465L455.66666666666674,219.87446739324534L456.6333333333333,219.74776179393848L457.6,219.62170889494757L458.56666666666666,219.4963062143396L459.5333333333333,219.37155125726267L460.5000000000001,219.24744151656714L461.46666666666664,219.12397447341272L462.43333333333345,219.00114759786135L463.3999999999999,218.87895834945684L464.3666666666668,218.7574041777907L465.33333333333337,218.63648252305552L466.3,218.5161908165847L467.26666666666665,218.39652648138028L468.23333333333335,218.27748693262822L469.2000000000001,218.1590695782017L470.1666666666666,218.04127181915234L471.13333333333344,217.92409105019044L472.09999999999985,217.80752466015304L473.06666666666666,217.69157003246178L474.03333333333336,217.5762245455693L475,217.4614855733951L475.96666666666664,217.34735048575104L476.93333333333334,217.2338166487567L477.90000000000015,217.1208814252444L478.86666666666656,217.00854217515487L479.8333333333334,216.89679625592285L480.80000000000007,216.78564102285387L481.76666666666665,216.67507382949088L482.73333333333335,216.56509202797287L483.7,216.45569296938413L484.6666666666668,216.3468740040947L485.6333333333332,216.23863248209287L486.6000000000001,216.13096575330863L487.56666666666655,216.02387116792997L488.53333333333336,215.91734607670998L489.5,215.8113878312675L490.4666666666667,215.70599378437885L491.43333333333334,215.60116129026295L492.4,215.49688770485895L493.3666666666668,215.3931703860961L494.33333333333326,215.29000669415763L495.30000000000007,215.18739399173649L496.2666666666666,215.0853296442857L497.23333333333335,214.98381102026087L498.2,214.88283549135713L499.16666666666663,214.78240043273905L500.1333333333333,214.68250322326514L501.09999999999997,214.58314124570555L502.0666666666668,214.48431188695423L503.03333333333325,214.3860125382351L504.0000000000001,214.28824059530265L504.9666666666667,214.19099345863705L505.93333333333334,214.0942685336332L506.90000000000003,213.99806323078545L507.8666666666667,213.90237496586622L508.8333333333335,213.80720116009982L509.8,213.71253924033132L510.76666666666677,213.61838663919036L511.73333333333323,213.52474079525035L512.7,213.4315991531827L513.6666666666667,213.33895916390662L514.6333333333333,213.2468182847347L515.6,213.1551739795132L516.5666666666667,213.06402371875896L517.5333333333334,212.97336497979185L518.4999999999999,212.88319524686264L519.4666666666667,212.7935120112772L520.4333333333333,212.7043127715169L521.4,212.61559503335468L522.3666666666667,212.5273563099678L523.3333333333334,212.4395941220464L524.3,212.352305997899L525.2666666666665,212.2654894735537L526.2333333333335,212.17914209285686L527.1999999999999,212.09326140756744L528.1666666666667,212.00784497744854L529.1333333333333,211.922890370356L530.1000000000001,211.8383951623227L531.0666666666667,211.7543569376411L532.0333333333333,211.6707732889417L533.0000000000001,211.58764181726895L533.9666666666667,211.50496013215474L534.9333333333334,211.42272585168763L535.8999999999999,211.34093660258108L536.8666666666668,211.2595900202374L537.8333333333334,211.1786837488102L538.8000000000001,211.0982154412633L539.7666666666667,211.01818275942813L540.7333333333333,210.93858337405732L541.7000000000002,210.85941496487726L542.6666666666666,210.78067522063736L543.6333333333334,210.70236183915708L544.5999999999999,210.62447252737115L545.5666666666667,210.5470050013721L546.5333333333334,210.46995698645097L547.5,210.3933262171355L548.4666666666666,210.31711043722657L549.4333333333333,210.2413073998328L550.4000000000001,210.16591486740225L551.3666666666666,210.0909306117537L552.3333333333334,210.01635241410452L553.3000000000001,209.94217806509752L554.2666666666667,209.86840536482597L555.2333333333333,209.79503212285672L556.1999999999999,209.72205615825158L557.1666666666669,209.64947529958687L558.1333333333332,209.57728738497187L559.1000000000001,209.50549026206508L560.0666666666666,209.43408178808932L561.0333333333333,209.36305982984493L562,209.2924222637219L562.9666666666667,209.22216697571054L563.9333333333333,209.15229186140988L564.8999999999999,209.08279482603618L565.8666666666668,209.01367378442856L566.8333333333333,208.94492666105475L567.8000000000001,208.87655139001407L568.7666666666665,208.8085459150405L569.7333333333335,208.7409081895037L570.7,208.673636176409L571.6666666666666,208.60672784839664L572.6333333333333,208.54018118773936L573.6,208.47399418633893L574.5666666666667,208.40816484572218L575.5333333333333,208.34269117703514L576.5000000000001,208.27757120103675L577.4666666666667,208.21280294809165L578.4333333333334,208.14838445816142L579.4,208.0843137807954L580.3666666666667,208.02058897512026L581.3333333333335,207.95720810982894L582.3,207.89416926316875L583.2666666666668,207.83147052292819L584.2333333333332,207.76910998642344L585.2,207.70708576048375L586.1666666666667,207.64539596143618L587.1333333333333,207.5840387150894L588.1,207.52301215671739L589.0666666666666,207.46231443104102L590.0333333333334,207.40194369221086L590.9999999999999,207.3418981037875L591.9666666666667,207.28217583872245L592.9333333333333,207.22277507933774L593.9,207.16369401730512L594.8666666666667,207.10493085362486L595.8333333333334,207.0464837986034L596.8,206.988351071831L597.7666666666665,206.93053090215855L598.7333333333335,206.87302152767404L599.6999999999999,206.81582119567815L600.6666666666667,206.75892816265966L601.6333333333333,206.70234069427036L602.6000000000001,206.6460570652994L603.5666666666667,206.59007555964706L604.5333333333333,206.53439447029822L605.5000000000001,206.47901209929546L606.4666666666667,206.42392675771185L607.4333333333334,206.36913676562264L608.3999999999999,206.31464045207767L609.3666666666668,206.2604361550723L610.3333333333334,206.206522221519L611.3000000000001,206.15289700721772L612.2666666666667,206.09955887682622L613.2333333333333,206.04650620383052L614.2000000000002,205.9937373705144L615.1666666666666,205.94125076792878L616.1333333333334,205.88904479586114L617.0999999999999,205.8371178628043L618.0666666666667,205.78546838592467L619.0333333333334,205.73409479103148"
       id="path144" />
  </g>
  <g
     fill="none"
     stroke="#e15759"
     stroke-width="1.5"
     stroke-miterlimit="1"
     id="g150"
     clip-path="url(#clipPath1155)">
    <path
       d="M40,-26227.465848000575L40.96666666666665,-25605.386066911018L41.93333333333329,-24998.27980284058L42.90000000000002,-24405.7696936769L43.866666666666674,-23827.488401869192L44.83333333333332,-23263.078333438778L45.79999999999996,-22712.19136529169L46.766666666666694,-22174.48858057466L47.73333333333334,-21649.640011825337L48.69999999999999,-21137.32439167449L49.66666666666663,-20637.228910867554L50.63333333333337,-20149.04898337882L51.600000000000016,-19672.48801839978L52.566666666666656,-19207.257198989795L53.5333333333333,-18753.07526718464L54.500000000000036,-18309.66831536443L55.466666666666676,-17876.76958368946L56.43333333333332,-17454.1192634177L57.39999999999998,-17041.464305925118L58.36666666666671,-16638.558237254278L59.33333333333334,-16245.160978023288L60.3,-15861.038668531608L61.26666666666664,-15485.9634989057L62.23333333333338,-15119.713544131091L63.20000000000002,-14762.072603823599L64.16666666666667,-14412.830046595791L65.13333333333331,-14071.780658880874L66.09999999999997,-13738.724498079207L67.06666666666669,-13413.466749897576L68.03333333333333,-13095.817589755552L68.99999999999997,-12785.59204813647L69.96666666666664,-12482.609879765656L70.93333333333337,-12186.695436500915L71.9,-11897.677543824899L72.86666666666665,-11615.389380831608L73.8333333333333,-11339.668363603569L74.80000000000003,-11070.356031878546L75.76666666666668,-10807.297938908525L76.73333333333332,-10550.343544416053L77.69999999999997,-10299.346110556768L78.66666666666669,-10054.16260079903L79.63333333333335,-9814.653581634897L80.6,-9580.68312703873L81.56666666666663,-9352.118725593136L82.53333333333337,-9128.83119020358L83.50000000000001,-8910.694570326077L84.46666666666667,-8697.586066634085L85.43333333333331,-8489.385948053741L86.40000000000003,-8285.977471098022L87.3666666666667,-8087.246801433087L88.33333333333333,-7893.082937611575L89.29999999999998,-7703.3776369102725L90.26666666666662,-7518.025343210878L91.23333333333336,-7336.923116864743L92.2,-7159.970566484333L93.16666666666666,-6987.0697826055175L94.13333333333338,-6818.125273167059L95.10000000000002,-6653.043900754827L96.06666666666666,-6491.734821559885L97.03333333333333,-6334.109426001529L97.99999999999996,-6180.081280967329L98.9666666666667,-6029.566073623984L99.93333333333334,-5882.481556754111L100.89999999999999,-5738.747495575285L101.86666666666663,-5598.285615999314L102.83333333333337,-5461.019554290547L103.80000000000001,-5326.87480808364L104.76666666666665,-5195.778688721991L105.7333333333333,-5067.660274879675L106.70000000000005,-4942.450367430354L107.66666666666669,-4820.081445528099L108.63333333333333,-4700.487623865727L109.59999999999998,-4583.604611077723L110.56666666666672,-4469.369669255333L111.53333333333335,-4357.721574542779L112.5,-4248.600578784027L113.46666666666664,-4141.948372190931L114.43333333333331,-4037.708047004023L115.40000000000002,-3935.824062118248L116.36666666666667,-3836.2422086468077L117.33333333333331,-3738.9095763968153L118.30000000000005,-3643.774521231583L119.2666666666667,-3550.7866332948297L120.23333333333333,-3459.8967060728287L121.19999999999999,-3371.0567062714385L122.16666666666663,-3284.2197444853537L123.13333333333337,-3199.340046637734L124.10000000000001,-3116.3729261690055L125.06666666666666,-3035.2747569540643L126.0333333333333,-2956.002946928027L127.00000000000003,-2878.5159124009133L127.9666666666667,-2802.773053042464L128.93333333333334,-2728.73472751863L129.89999999999998,-2656.362229762031L130.8666666666667,-2585.617765858959L131.83333333333334,-2516.4644315361893L132.8,-2448.8661902311483L133.76666666666665,-2382.7878517297004L134.73333333333338,-2318.195051356024L135.70000000000002,-2255.0542296996755L136.66666666666666,-2193.332612865188L137.63333333333333,-2132.9981932301775L138.59999999999997,-2074.0197106981423L139.5666666666667,-2016.3666344326118L140.53333333333333,-1960.0091450597192L141.49999999999997,-1904.9181173265035L142.46666666666673,-1851.0651032027872L143.43333333333337,-1798.4223154146773L144.4,-1746.9626113980844L145.36666666666667,-1696.6594776610934L146.33333333333331,-1647.4870145441982L147.3,-1599.4199213677894L148.26666666666665,-1552.4334819565927L149.23333333333335,-1506.5035505309672L150.20000000000005,-1461.6065379553722L151.16666666666669,-1417.719398334491L152.13333333333333,-1374.8196159477397L153.1,-1332.8851925132994L154.06666666666663,-1291.8946347728602L155.03333333333327,-1251.826942388661L156.00000000000003,-1212.6615961445568L156.96666666666667,-1174.3785464431303L157.9333333333333,-1136.9582020910016L158.90000000000003,-1100.3814193648388L159.86666666666667,-1064.6294913506513L160.83333333333334,-1029.6841375491874L161.79999999999998,-995.5274937405304L162.76666666666662,-962.1421021010592L163.73333333333335,-929.5109015662085L164.70000000000002,-897.6172184326309L165.66666666666666,-866.4447571934772L166.63333333333338,-835.9775916007903L167.60000000000002,-806.2001559490897L168.56666666666666,-777.0972365743728L169.5333333333333,-748.6539635630164L170.49999999999997,-720.855802665092L171.4666666666667,-693.6885474068354L172.43333333333337,-667.1383113971367L173.4,-641.191520823016L174.36666666666673,-615.8349071292588L175.33333333333337,-591.0554998774553L176.3,-566.8406197798223L177.26666666666665,-543.1778719033581L178.23333333333332,-520.0551390399338L179.19999999999996,-497.46057523809816L180.16666666666669,-475.38259949244525L181.13333333333333,-453.8098895865442L182.09999999999997,-432.7313760854883L183.0666666666667,-412.13623647428096L184.03333333333336,-392.0138894383447L185,-372.35398928251675L185.96666666666667,-353.1464204850632L186.93333333333328,-334.3812923832544L187.90000000000003,-316.04893398718536L188.86666666666667,-298.1398889186139L189.83333333333331,-280.6449104716232L190.80000000000004,-263.5549567920831L191.76666666666668,-246.8611861728939L192.73333333333335,-230.55495246208986L193.7,-214.6278005809971L194.66666666666663,-199.071462149664L195.63333333333333,-183.87785121688052L196.6,-169.0390600921721L197.56666666666666,-154.54735527721053L198.5333333333334,-140.39517349417275L199.50000000000006,-126.57511780862355L200.46666666666667,-113.07995384455573L201.43333333333334,-99.90260608931904L202.39999999999998,-87.036154286185L203.36666666666662,-74.47382991238041L204.33333333333334,-62.209012740468296L205.29999999999998,-50.23522748101823L206.26666666666665,-38.54614050454335L207.23333333333338,-27.135556640759322L208.20000000000002,-15.997416053256721L209.16666666666669,-5.125791187710899L210.13333333333333,5.48511620815723L211.09999999999997,15.840977994645737L212.06666666666666,25.94734248188331L213.03333333333333,35.809637205048034L214,45.43317163464624L214.96666666666673,54.82313982341783L215.9333333333334,63.98462299142878L216.9,72.9225920508661L217.86666666666667,81.64191007198998L218.8333333333333,90.14733469168716L219.80000000000004,98.4435204660235L220.76666666666668,106.53502116814369L221.73333333333332,114.42629203286538L222.70000000000005,122.12169194924024L223.6666666666667,129.62548560235174L224.63333333333333,136.94184556558037L225.6,144.07485434452522L226.5666666666666,151.02850637375514L227.53333333333327,157.80670996752318L228.5,164.4132892255555L229.46666666666667,170.8519858949909L230.43333333333334,177.1264611895342L231.40000000000003,183.24029756683782L232.36666666666667,189.19700046512003L233.33333333333331,195L234.29999999999998,200.6526526224901L235.26666666666662,206.15824273908447L236.23333333333346,211.5199842948418L237.1999999999999,216.74102232034437L238.16666666666674,221.82443444340652L239.13333333333338,226.77323236634246L240.10000000000002,231.5903633096484L241.06666666666666,236.27871142286642L242.03333333333333,240.84109916342206L242.99999999999994,245.28028864419352L243.9666666666666,249.59898295054745L244.93333333333345,253.79982742756866L245.8999999999999,257.88541093817935L246.86666666666673,261.8582670928499L247.83333333333337,265.7208754515439L248.8,269.475662698583L249.76666666666665,273.1250037910411L250.73333333333332,276.67122308130473L251.69999999999996,280.11659541440014L252.6666666666666,283.4633472006782L253.63333333333338,286.7136574644373L254.60000000000005,289.8696588690389L255.56666666666672,292.93343871907933L256.53333333333336,295.9070399401345L257.5,298.79246203661467L258.46666666666664,301.59166202823326L259.4333333333333,304.3065553655874L260.4000000000001,306.9390168253356L261.3666666666666,309.4908813854444L262.33333333333337,311.96394508097484L263.30000000000007,314.3599658408407L264.26666666666665,316.68066430600317L265.23333333333335,318.92772462950904L266.2,321.1027952588055L267.16666666666663,323.20748970073436L268.13333333333327,325.24338726960656L269.10000000000014,327.21203381874506L270.06666666666655,329.1149424558768L271.0333333333334,330.9535942427497L272.00000000000006,332.72943887932223L272.9666666666667,334.44389537290004L273.93333333333334,336.09835269254535L274.9,337.6941704091064L275.8666666666666,339.2326793211948L276.83333333333326,340.71518206742667L277.80000000000007,342.1429537252462L278.7666666666667,343.517242396634L279.73333333333335,344.83926978100146L280.7,346.1102317355592L281.6666666666667,347.3312988234466L282.63333333333327,348.5036168498999L283.59999999999997,349.6283073867287L284.5666666666668,350.7064682853678L285.53333333333325,351.73917417875913L286.50000000000006,352.7274769723239L287.4666666666667,353.67240632425904L288.4333333333334,354.57497011541227L289.40000000000003,355.4361549089607L290.3666666666667,356.2569264001281L291.3333333333333,357.03822985616125L292.29999999999995,357.7809905467878L293.26666666666677,358.4861141653667L294.23333333333323,359.15448724094L295.20000000000005,359.7869775413933L296.1666666666667,360.38443446791763L297.1333333333333,360.947689440975L298.09999999999997,361.47755627795016L299.0666666666666,361.9748315626793L300.0333333333333,362.4402950070345L300.99999999999994,362.87470980474137L301.96666666666675,363.2788229776033L302.9333333333334,363.6533657142997L303.90000000000003,363.9990537019255L304.86666666666673,364.316587450431L305.8333333333333,364.60665261012065L306.8,364.8699202823636L307.76666666666665,365.1070473236682L308.73333333333346,365.31867664326444L309.69999999999993,365.50543749433984L310.66666666666674,365.6679457590689L311.6333333333334,365.80680422757086L312.6,365.9226028709328L313.56666666666666,366.0159191084259L314.5333333333333,366.0873180690437L315.49999999999994,366.1373528474878L316.46666666666664,366.16656475472183L317.43333333333345,366.1754835632125L318.3999999999999,366.1646277469765L319.36666666666673,366.13450471654414L320.33333333333337,366.08561104895233L321.30000000000007,366.01843271287595L322.26666666666665,365.93344528900263L323.23333333333335,365.83111418575567L324.19999999999993,365.7118948504663L325.16666666666663,365.5762329760935L326.1333333333334,365.4245647035898L327.1000000000001,365.25731682000725L328.0666666666667,365.0749069524347L329.03333333333336,364.8777437578584L330,364.66622710903505L330.96666666666664,364.4407482764606L331.93333333333334,364.2016901065231L332.90000000000015,363.9494271959191L333.86666666666656,363.6843260624167L334.8333333333334,363.4067453120418L335.80000000000007,363.1170358027671L336.76666666666665,362.81554080477747L337.73333333333335,362.5025961573864L338.7,362.1785304226747L339.66666666666663,361.843665035924L340.6333333333332,361.4983144529104L341.6000000000001,361.1427862941292L342.56666666666655,360.77738148601543L343.53333333333336,360.40239439922186L344.5,360.018112984023L345.4666666666667,359.62481890290104L346.43333333333334,359.222787660378L347.4,358.8122887301497L348.3666666666667,358.3935856795826L349.33333333333326,357.9669362916269L350.30000000000007,357.5325926842015L351.26666666666665,357.09080142710695L352.23333333333335,356.64180365651544L353.2,356.1858351870915L354.16666666666663,355.7231266217944L355.1333333333333,355.25390345940946L356.09999999999997,354.77838619985755L357.0666666666668,354.2967904473298L358.03333333333325,353.8093270112946L359.0000000000001,353.31620200541784L359.9666666666667,352.81761694444816L360.93333333333334,352.31376883910104L361.90000000000003,351.80485028899125L362.8666666666667,351.29104957365166L363.8333333333333,350.7725507416786L364.8,350.24953369804416L365.76666666666677,349.7221742896141L366.73333333333323,349.19064438890865L367.7,348.6551119761422L368.6666666666667,348.11574121958074L369.6333333333333,347.57269255424956L370.59999999999997,347.026122759027L371.56666666666666,346.47618503215864L372.5333333333333,345.9230290652236L373.4999999999999,345.36680111558707L374.46666666666675,344.80764407736865L375.43333333333345,344.24569755095985L376.40000000000003,343.68109791111897L377.3666666666667,343.1139783736743L378.33333333333337,342.5444690608646L379.3,341.9726970653444L380.26666666666665,341.39878651288285L381.2333333333334,340.8228586237829L382.19999999999993,340.2450317730481L383.16666666666674,339.6654215493203L384.1333333333333,339.0841408126195L385.1,338.5012997509034L386.06666666666666,337.91700593547733L387.0333333333333,337.3313643752752L388,336.7444775700348L388.96666666666664,336.15644556239306L389.93333333333345,335.567365988919L390.8999999999999,334.97733413011173L391.8666666666668,334.38644295937974L392.83333333333337,333.79478319102685L393.8,333.2024433272622L394.76666666666665,332.60950970425574L395.73333333333335,332.0160665372595L396.69999999999993,331.42219596481226L397.6666666666666,330.8279780920473L398.63333333333344,330.23349103312285L399.6000000000001,329.6388109527907L400.56666666666666,329.04401210712325L401.53333333333336,328.44916688341425L402.5,327.8543458392717L403.46666666666664,327.25961774091866L404.43333333333334,326.66504960071865L405.40000000000015,326.07070671394024L406.36666666666656,325.47665269477955L407.3333333333334,324.88294951165034L408.30000000000007,324.2896575217644L409.26666666666665,323.69683550500815L410.23333333333335,323.10454069713694L411.2,322.5128288222968L412.16666666666663,321.92175412488905L413.1333333333332,321.3313694007905L414.1000000000001,320.74172602794295L415.06666666666655,320.1528739963246L416.03333333333336,319.56486193731456L417,318.9777371524669L417.9666666666667,318.39154564169996L418.93333333333334,317.8063321309194L419.9,317.2221400990812L420.8666666666667,316.63901180470936L421.83333333333326,316.05698831187806L422.80000000000007,315.4761095156682L423.76666666666665,314.8964141671119L424.73333333333335,314.3179398976313L425.7,313.74072324298567L426.66666666666663,313.16479966673455L427.6333333333333,312.5902035832271L428.59999999999997,312.01696838012793L429.5666666666668,311.4451264404878L430.53333333333325,310.87470916436973L431.5000000000001,310.3057469900367L432.4666666666667,309.73826941471464L433.43333333333334,309.1723050149338L434.40000000000003,308.60788146646064L435.3666666666667,308.04502556382744L436.3333333333333,307.48376323946763L437.3,306.92411958246447L438.26666666666677,306.36611885692156L439.23333333333323,305.8097845199633L440.2,305.25513923936893L441.1666666666667,304.70220491085513L442.1333333333333,304.15100267500515L443.09999999999997,303.60155293385856L444.06666666666666,303.05387536716523L445.0333333333335,302.5079889483108L445.9999999999999,301.96391195992055L446.96666666666675,301.42166200914727L447.9333333333332,300.88125604265156L448.90000000000003,300.34271036127734L449.8666666666667,299.80604063443246L450.83333333333337,299.2712619141771L451.8,298.73838864902757L452.76666666666665,298.2074346974813L453.7333333333334,297.678413341267L454.69999999999993,297.15133729832814L455.66666666666674,296.6262187355415L456.6333333333333,296.10306928118L457.6,295.5819000371215L458.56666666666666,295.0627215908113L459.5333333333333,294.54554402698113L460.5000000000001,294.0303769391311L461.46666666666664,293.51722944077875L462.43333333333345,293.0061101764785L463.3999999999999,292.4970273326199L464.3666666666668,291.98998864800296L465.33333333333337,291.4850014242027L466.3,290.98207253571917L467.26666666666665,290.4812084399235L468.23333333333335,289.98241518680084L469.2000000000001,289.4856984284943L470.1666666666666,288.9910634286562L471.13333333333344,288.49851507160616L472.09999999999985,288.00805787130554L473.06666666666666,287.5196959801459L474.03333333333336,287.0334331975605L475,286.5492729784582L475.96666666666664,286.0672184414859L476.93333333333334,285.58727237712196L477.90000000000015,285.1094372556037L478.86666666666656,284.63371523469345L479.8333333333334,284.16010816728397L480.80000000000007,283.68861760884977L481.76666666666665,283.2192448247444L482.73333333333335,282.7519907973484L483.7,282.2868562330703L484.6666666666668,281.8238415692038L485.6333333333332,281.3629469806441L486.6000000000001,280.90417238646484L487.56666666666655,280.4475174563619L488.53333333333336,279.9929816169613L489.5,279.5405640579994L490.4666666666667,279.0902637383746L491.43333333333334,278.642079392073L492.4,278.1960095339733L493.3666666666668,277.75205246552997L494.33333333333326,277.31020628033946L495.30000000000007,276.87046886958984L496.2666666666666,276.4328379273995L497.23333333333335,275.9973109560416L498.2,275.5638852710632L499.16666666666663,275.13255800629526L500.1333333333333,274.7033261187591L501.09999999999997,274.27618639347054L502.0666666666668,273.8511354481436L503.03333333333325,273.42816973779554L504.0000000000001,273.007285559255L504.9666666666667,272.5884790555773L505.93333333333334,272.1717462203648L506.90000000000003,271.75708290199805L507.8666666666667,271.34448480777684L508.8333333333335,270.9339475079752L509.8,270.5254664398094L510.76666666666677,270.11903691132284L511.73333333333323,269.7146541051891L512.7,269.3123130824332L513.6666666666667,268.91200878607555L514.6333333333333,268.5137360446965L515.6,268.11748957592687L516.5666666666667,267.7232639898628L517.5333333333334,267.3310537924083L518.4999999999999,266.9408533885464L519.4666666666667,266.55265708553924L520.4333333333333,266.1664590960616L521.4,265.7822535412641L522.3666666666667,265.4000344537736L523.3333333333334,265.0197957806269L524.3,264.6415313861414L525.2666666666665,264.2652350547238L526.2333333333335,263.89090049361863L527.1999999999999,263.51852133559606L528.1666666666667,263.14809114158084L529.1333333333333,262.77960340322585L530.1000000000001,262.41305154542755L531.0666666666667,262.0484289287871L532.0333333333333,261.6857288520173L533.0000000000001,261.324944554297L533.9666666666667,260.9660692175734L534.9333333333334,260.609095968813L535.8999999999999,260.25401788220387L536.8666666666668,259.90082798130777L537.8333333333334,259.5495192411656L538.8000000000001,259.2000845903553L539.7666666666667,258.8525169130036L540.7333333333333,258.5068090507533L541.7000000000002,258.1629538046859L542.6666666666666,257.8209439372016L543.6333333333334,257.48077217385554L544.5999999999999,257.1424312051544L545.5666666666667,256.80591368831034L546.5333333333334,256.47121224895653L547.5,256.1383194828227L548.4666666666666,255.80722795737236L549.4333333333333,255.47793021340303L550.4000000000001,255.15041876660908L551.3666666666666,254.82468610910874L552.3333333333334,254.50072471093534L553.3000000000001,254.17852702149486L554.2666666666667,253.85808547098856L555.2333333333333,253.53939247180244L556.1999999999999,253.22244041986477L557.1666666666669,252.90722169597092L558.1333333333332,252.59372866707736L559.1000000000001,252.28195368756445L560.0666666666666,251.97188910047015L561.0333333333333,251.6635272386929L562,251.35686042616686L562.9666666666667,251.05188097900833L563.9333333333333,250.7485812066343L564.8999999999999,250.4469534128543L565.8666666666668,250.1469898969351L566.8333333333333,249.8486829546403L567.8000000000001,249.55202487924274L568.7666666666665,249.257007962514L569.7333333333335,248.96362449568733L570.7,248.67186677039845L571.6666666666666,248.3817270796011L572.6333333333333,248.09319771846083L573.6,247.8062709852256L574.5666666666667,247.5209391820745L575.5333333333333,247.23719461594453L576.5000000000001,246.9550295993365L577.4666666666667,246.67443645110012L578.4333333333334,246.39540749719825L579.4,246.11793507145183L580.3666666666667,245.84201151626496L581.3333333333335,245.56762918333075L582.3,245.29478043431894L583.2666666666668,245.02345764154418L584.2333333333332,244.75365318861756L585.2,244.48535947107953L586.1666666666667,244.21856889701633L587.1333333333333,243.95327388765855L588.1,243.68946687796466L589.0666666666666,243.42714031718666L590.0333333333334,243.16628666942117L590.9999999999999,242.90689841414442L591.9666666666667,242.64896804673188L592.9333333333333,242.39248807896357L593.9,242.13745103951413L594.8666666666667,241.88384947442944L595.8333333333334,241.63167594758835L596.8,241.38092304115108L597.7666666666665,241.13158335599496L598.7333333333335,240.8836495121356L599.6999999999999,240.63711414913675L600.6666666666667,240.39196992650622L601.6333333333333,240.14820952408073L602.6000000000001,239.9058256423978L603.5666666666667,239.66481100305646L604.5333333333333,239.42515834906575L605.5000000000001,239.18686044518307L606.4666666666667,238.94991007823995L607.4333333333334,238.71430005745847L608.3999999999999,238.48002321475627L609.3666666666668,238.2470724050411L610.3333333333334,238.0154405064961L611.3000000000001,237.7851204208541L612.2666666666667,237.556105073663L613.2333333333333,237.32838741454123L614.2000000000002,237.10196041742438L615.1666666666666,236.87681708080203L616.1333333333334,236.65295042794637L617.0999999999999,236.43035350713208L618.0666666666667,236.2090193918468L619.0333333333334,235.98894118099483"
       id="path148" />
  </g>
  <g
     stroke="black"
     id="g154">
    <line
       x1="233.33333333333331"
       x2="233.33333333333331"
       y1="20"
       y2="370"
       id="line152" />
  </g>
  <g
     fill="#4e79a7"
     id="g158">
    <text
       dy="-1em"
       x="619.0333333333334"
       y="205.73409479103148"
       id="text156">Energy</text>
  </g>
  <g
     fill="#e15759"
     id="g162">
    <text
       dy="-1em"
       x="619.0333333333334"
       y="235.98894118099483"
       id="text160">Force</text>
  </g>
</svg>
