<?xml version="1.0" encoding="UTF-8" standalone="no"?>
<svg
   class="plot"
   fill="currentColor"
   text-anchor="middle"
   width="640"
   height="640"
   viewBox="0 0 640 640"
   version="1.1"
   id="svg164"
   sodipodi:docname="lj_plot.svg"
   inkscape:version="1.1.1 (1:1.1+202109281949+c3084ef5ed)"
   xmlns:inkscape="http://www.inkscape.org/namespaces/inkscape"
   xmlns:sodipodi="http://sodipodi.sourceforge.net/DTD/sodipodi-0.dtd"
   xmlns="http://www.w3.org/2000/svg"
   xmlns:svg="http://www.w3.org/2000/svg">
  <defs
     id="defs168">
    <clipPath
       clipPathUnits="userSpaceOnUse"
       id="clipPath1155">
      <rect
         style="fill:#000000;fill-opacity:0.5;stroke:none;stroke-width:4.49104;stroke-miterlimit:10;paint-order:markers fill stroke;stop-color:#000000"
         id="rect1157"
         width="640"
         height="400"
         x="0"
         y="0" />
    </clipPath>
    <clipPath
       clipPathUnits="userSpaceOnUse"
       id="clipPath1159">
      <rect
         style="fill:#000000;fill-opacity:0.5;stroke:none;stroke-width:4.49104;stroke-miterlimit:10;paint-order:markers fill stroke;stop-color:#000000"
         id="rect1161"
         width="640"
         height="400"
         x="0"
         y="0" />
    </clipPath>
  </defs>
  <sodipodi:namedview
     id="namedview166"
     pagecolor="#ffffff"
     bordercolor="#666666"
     borderopacity="1.0"
     inkscape:pageshadow="2"
     inkscape:pageopacity="0.0"
     inkscape:pagecheckerboard="0"
     showgrid="false"
     inkscape:zoom="2.0825"
     inkscape:cx="582.23289"
     inkscape:cy="333.97359"
     inkscape:window-width="1920"
     inkscape:window-height="1048"
     inkscape:window-x="1920"
     inkscape:window-y="0"
     inkscape:window-maximized="1"
     inkscape:current-layer="g1448" />
  <g
     id="g1448">
    <line
       x1="233.28513"
       x2="233.28513"
       y1="20"
       y2="596.61517"
       id="line152"
       style="stroke:#000000;stroke-width:2.5;stroke-miterlimit:4;stroke-dasharray:none" />
    <line
       x1="619.85834"
       x2="39.998539"
       y1="308.3013"
       y2="308.3013"
       id="line152-6"
       style="stroke:#000000;stroke-width:2.5;stroke-miterlimit:4;stroke-dasharray:none" />
    <line
       stroke="currentColor"
       x2="34"
       id="line2"
       x1="39.99855"
       y1="570.4054"
       y2="570.4054"
       style="text-anchor:end;fill:none;stroke-width:2.5;stroke-miterlimit:4;stroke-dasharray:none" />
    <line
       stroke="currentColor"
       x2="619.85834"
       stroke-opacity="0.1"
       id="line4"
       x1="39.99855"
       y1="570.4054"
       y2="570.4054"
       style="text-anchor:end;fill:none;stroke-width:2.5;stroke-miterlimit:4;stroke-dasharray:none" />
    <line
       stroke="currentColor"
       x2="34"
       id="line10"
       x1="39.99855"
       y1="517.98584"
       y2="517.98584"
       style="text-anchor:end;fill:none;stroke-width:2.5;stroke-miterlimit:4;stroke-dasharray:none" />
    <line
       stroke="currentColor"
       x2="619.85834"
       stroke-opacity="0.1"
       id="line12"
       x1="39.99855"
       y1="517.98584"
       y2="517.98584"
       style="text-anchor:end;fill:none;stroke-width:2.5;stroke-miterlimit:4;stroke-dasharray:none" />
    <line
       stroke="currentColor"
       x2="34"
       id="line18"
       x1="39.99855"
       y1="465.56625"
       y2="465.56625"
       style="text-anchor:end;fill:none;stroke-width:2.5;stroke-miterlimit:4;stroke-dasharray:none" />
    <line
       stroke="currentColor"
       x2="619.85834"
       stroke-opacity="0.1"
       id="line20"
       x1="39.99855"
       y1="465.56625"
       y2="465.56625"
       style="text-anchor:end;fill:none;stroke-width:2.5;stroke-miterlimit:4;stroke-dasharray:none" />
    <line
       stroke="currentColor"
       x2="34"
       id="line26"
       x1="39.99855"
       y1="413.1467"
       y2="413.1467"
       style="text-anchor:end;fill:none;stroke-width:2.5;stroke-miterlimit:4;stroke-dasharray:none" />
    <line
       stroke="currentColor"
       x2="619.85834"
       stroke-opacity="0.1"
       id="line28"
       x1="39.99855"
       y1="413.1467"
       y2="413.1467"
       style="text-anchor:end;fill:none;stroke-width:2.5;stroke-miterlimit:4;stroke-dasharray:none" />
    <line
       stroke="currentColor"
       x2="34"
       id="line34"
       x1="39.99855"
       y1="360.72714"
       y2="360.72714"
       style="text-anchor:end;fill:none;stroke-width:2.5;stroke-miterlimit:4;stroke-dasharray:none" />
    <line
       stroke="currentColor"
       x2="619.85834"
       stroke-opacity="0.1"
       id="line36"
       x1="39.99855"
       y1="360.72714"
       y2="360.72714"
       style="text-anchor:end;fill:none;stroke-width:2.5;stroke-miterlimit:4;stroke-dasharray:none" />
    <line
       stroke="currentColor"
       x2="34"
       id="line42"
       x1="39.99855"
       y1="308.30759"
       y2="308.30759"
       style="text-anchor:end;fill:none;stroke-width:2.5;stroke-miterlimit:4;stroke-dasharray:none" />
    <line
       stroke="currentColor"
       x2="619.85834"
       stroke-opacity="0.1"
       id="line44"
       x1="39.99855"
       y1="308.30756"
       y2="308.30756"
       style="text-anchor:end;fill:none;stroke-width:2.5;stroke-miterlimit:4;stroke-dasharray:none" />
    <line
       stroke="currentColor"
       x2="34"
       id="line50"
       x1="39.99855"
       y1="255.88803"
       y2="255.88803"
       style="text-anchor:end;fill:none;stroke-width:2.5;stroke-miterlimit:4;stroke-dasharray:none" />
    <line
       stroke="currentColor"
       x2="619.85834"
       stroke-opacity="0.1"
       id="line52"
       x1="39.99855"
       y1="255.88803"
       y2="255.88803"
       style="text-anchor:end;fill:none;stroke-width:2.5;stroke-miterlimit:4;stroke-dasharray:none" />
    <line
       stroke="currentColor"
       x2="34"
       id="line58"
       x1="39.99855"
       y1="203.46848"
       y2="203.46848"
       style="text-anchor:end;fill:none;stroke-width:2.5;stroke-miterlimit:4;stroke-dasharray:none" />
    <line
       stroke="currentColor"
       x2="619.85834"
       stroke-opacity="0.1"
       id="line60"
       x1="39.99855"
       y1="203.46848"
       y2="203.46848"
       style="text-anchor:end;fill:none;stroke-width:2.5;stroke-miterlimit:4;stroke-dasharray:none" />
    <line
       stroke="currentColor"
       x2="34"
       id="line66"
       x1="39.99855"
       y1="151.0489"
       y2="151.0489"
       style="text-anchor:end;fill:none;stroke-width:2.5;stroke-miterlimit:4;stroke-dasharray:none" />
    <line
       stroke="currentColor"
       x2="619.85834"
       stroke-opacity="0.1"
       id="line68"
       x1="39.99855"
       y1="151.0489"
       y2="151.0489"
       style="text-anchor:end;fill:none;stroke-width:2.5;stroke-miterlimit:4;stroke-dasharray:none" />
    <line
       stroke="currentColor"
       x2="34"
       id="line74"
       x1="39.99855"
       y1="98.629341"
       y2="98.629341"
       style="text-anchor:end;fill:none;stroke-width:2.5;stroke-miterlimit:4;stroke-dasharray:none" />
    <line
       stroke="currentColor"
       x2="619.85834"
       stroke-opacity="0.1"
       id="line76"
       x1="39.99855"
       y1="98.629341"
       y2="98.629341"
       style="text-anchor:end;fill:none;stroke-width:2.5;stroke-miterlimit:4;stroke-dasharray:none" />
    <line
       stroke="currentColor"
       x2="34"
       id="line82"
       x1="39.99855"
       y1="46.209782"
       y2="46.209782"
       style="text-anchor:end;fill:none;stroke-width:2.5;stroke-miterlimit:4;stroke-dasharray:none" />
    <line
       stroke="currentColor"
       x2="619.85834"
       stroke-opacity="0.1"
       id="line84"
       x1="39.99855"
       y1="46.209782"
       y2="46.209782"
       style="text-anchor:end;fill:none;stroke-width:2.5;stroke-miterlimit:4;stroke-dasharray:none" />
    <line
       stroke="currentColor"
       y2="602.61517"
       id="line92"
       x1="78.380226"
       y1="596.61517"
       x2="78.380226"
       style="text-anchor:middle;fill:none;stroke-width:2.5;stroke-miterlimit:4;stroke-dasharray:none" />
    <line
       stroke="currentColor"
       y2="602.61517"
       id="line98"
       x1="155.77362"
       y1="596.61517"
       x2="155.77362"
       style="text-anchor:middle;fill:none;stroke-width:2.5;stroke-miterlimit:4;stroke-dasharray:none" />
    <line
       stroke="currentColor"
       y2="602.61517"
       id="line104"
       x1="233.16699"
       y1="596.61517"
       x2="233.16699"
       style="text-anchor:middle;fill:none;stroke-width:2.5;stroke-miterlimit:4;stroke-dasharray:none" />
    <line
       stroke="currentColor"
       y2="602.61517"
       id="line110"
       x1="310.56039"
       y1="596.61517"
       x2="310.56039"
       style="text-anchor:middle;fill:none;stroke-width:2.5;stroke-miterlimit:4;stroke-dasharray:none" />
    <line
       stroke="currentColor"
       y2="602.61517"
       id="line116"
       x1="387.95377"
       y1="596.61517"
       x2="387.95377"
       style="text-anchor:middle;fill:none;stroke-width:2.5;stroke-miterlimit:4;stroke-dasharray:none" />
    <line
       stroke="currentColor"
       y2="602.61517"
       id="line122"
       x1="465.34717"
       y1="596.61517"
       x2="465.34717"
       style="text-anchor:middle;fill:none;stroke-width:2.5;stroke-miterlimit:4;stroke-dasharray:none" />
    <line
       stroke="currentColor"
       y2="602.61517"
       id="line128"
       x1="542.7406"
       y1="596.61517"
       x2="542.7406"
       style="text-anchor:middle;fill:none;stroke-width:2.5;stroke-miterlimit:4;stroke-dasharray:none" />
    <line
       stroke="currentColor"
       y2="602.61517"
       id="line134"
       x1="620.13397"
       y1="596.61517"
       x2="620.13397"
       style="text-anchor:middle;fill:none;stroke-width:2.5;stroke-miterlimit:4;stroke-dasharray:none" />
    <path
       d="m 106.68242,25.03988 0.96644,10.453275 0.96642,10.204145 0.96644,9.960661 0.96644,9.722699 0.96642,9.490122 0.96644,9.262815 0.96644,9.040649 0.96642,8.823504 0.96644,8.61128 0.96643,8.40385 0.96643,8.20109 0.96644,8.00293 0.96643,7.80923 0.96643,7.6199 0.96644,7.43485 0.96643,7.25397 0.96643,7.07718 0.96643,6.90434 0.96644,6.73542 0.96643,6.5703 0.96643,6.4089 0.96644,6.25111 0.96643,6.09692 0.96643,5.94617 0.96644,5.7988 0.96642,5.65475 0.96644,5.51396 0.96644,5.37633 0.96642,5.24178 0.96644,5.11026 0.96644,4.9817 0.96642,4.85603 0.96644,4.73318 0.96643,4.61311 0.96643,4.4957 0.96644,4.38096 0.96643,4.26878 0.96643,4.15912 0.96644,4.05196 0.96643,3.94716 0.96643,3.84476 0.96643,3.74462 0.96644,3.64676 0.96643,3.55108 0.96643,3.45758 0.96644,3.36614 0.96643,3.27681 0.96643,3.18944 0.96644,3.10407 0.96642,3.0206 0.96644,2.93904 0.96644,2.85927 0.96642,2.78135 0.96644,2.70515 0.96644,2.63068 0.96642,2.55788 0.96644,2.48675 0.96643,2.41718 0.96643,2.34923 0.96644,2.28279 0.96643,2.21784 0.96643,2.15438 0.96644,2.09236 0.96643,2.03173 0.96643,1.97248 0.96643,1.91458 0.96644,1.85797 0.96643,1.80268 0.96643,1.74861 0.96644,1.69579 0.96643,1.64418 0.96643,1.59371 0.96644,1.54444 0.96643,1.49625 0.96643,1.4492 0.96644,1.40319 0.96642,1.35824 0.96644,1.31433 0.96644,1.27142 0.96642,1.22951 0.96644,1.18854 0.96644,1.14852 0.96642,1.10942 0.96644,1.07124 0.96643,1.0339 0.96643,0.99746 0.96644,0.96185 0.96643,0.92706 0.96643,0.8931 0.96644,0.85989 0.96643,0.82748 0.96643,0.79583 0.96643,0.76489 0.96644,0.7347 0.96643,0.7052 0.96643,0.67641 0.96644,0.64828 0.96643,0.62083 0.96643,0.594 0.96644,0.56781 0.96642,0.54227 0.96644,0.5173 0.96644,0.49294 0.96642,0.46915 0.96644,0.44594 0.96644,0.42327 0.96642,0.40116 0.96644,0.37958 0.96643,0.35849 0.96643,0.33794 0.96644,0.31788 0.96643,0.29829 0.96643,0.27922 0.96644,0.26056 0.96643,0.24238 0.96643,0.22465 0.96643,0.20735 0.96644,0.19048 0.96643,0.17402 0.96643,0.15799 0.96644,0.14235 0.96643,0.12702 0.96643,0.11219 0.96644,0.0977 0.96642,0.0835 0.96644,0.0697 0.96644,0.0563 0.96642,0.0433 0.96644,0.0305 0.96644,0.0181 0.96642,0.007 0.96644,-0.007 0.96643,-0.0173 0.96643,-0.0285 0.96644,-0.0394 0.96643,-0.0501 0.96643,-0.0603 0.96644,-0.0703 0.96643,-0.0802 0.96643,-0.0898 0.96643,-0.099 0.96644,-0.10808 0.96643,-0.1168 0.96643,-0.12538 0.96644,-0.13361 0.96643,-0.14168 0.96643,-0.14959 0.96644,-0.15717 0.96642,-0.16458 0.96644,-0.17175 0.96644,-0.17875 0.96642,-0.18554 0.96644,-0.19213 0.96644,-0.19855 0.96642,-0.20475 0.96644,-0.21079 0.96644,-0.21663 0.96642,-0.22232 0.96644,-0.22783 0.96643,-0.23315 0.96643,-0.23834 0.96644,-0.24335 0.96643,-0.24821 0.96643,-0.2529 0.96644,-0.25747 0.96643,-0.26186 0.96643,-0.26614 0.96643,-0.27025 0.96644,-0.27424 0.96643,-0.27809 0.96643,-0.28182 0.96644,-0.2854 0.96643,-0.28887 0.96643,-0.29223 0.96644,-0.29546 0.96642,-0.29855 0.96644,-0.30156 0.96644,-0.30443 0.96642,-0.30722 0.96644,-0.30989 0.96644,-0.31246 0.96642,-0.31492 0.96644,-0.31728 0.96643,-0.31955 0.96643,-0.32172 0.96644,-0.32381 0.96643,-0.32578 0.96643,-0.3277 0.96644,-0.32951 0.96643,-0.33126 0.96643,-0.33289 0.96643,-0.33447 0.96644,-0.33595 0.96643,-0.33737 0.96643,-0.3387 0.96644,-0.33998 0.96643,-0.34117 0.96643,-0.34228 0.96644,-0.34337 0.96642,-0.34433 0.96644,-0.34526 0.96644,-0.34614 0.96642,-0.34694 0.96644,-0.34767 0.96644,-0.34835 0.96642,-0.34899 0.96644,-0.34956 0.96643,-0.35007 0.96643,-0.35053 0.96644,-0.35093 0.96643,-0.35131 0.96643,-0.3516 0.96644,-0.35188 0.96643,-0.35208 0.96643,-0.35227 0.96643,-0.35237 0.96644,-0.35247 0.96643,-0.3525 0.96643,-0.3525 0.96644,-0.35246 0.96643,-0.35238 0.96643,-0.35226 0.96644,-0.3521 0.96642,-0.35191 0.96644,-0.35167 0.96644,-0.35142 0.96642,-0.35113 0.96644,-0.35078 0.96644,-0.35043 0.96642,-0.35004 0.96644,-0.34963 0.96643,-0.34916 0.96643,-0.34871 0.96644,-0.34817 0.96643,-0.34765 0.96643,-0.34711 0.96644,-0.34651 0.96643,-0.3459 0.96643,-0.34527 0.96644,-0.34461 0.96643,-0.34393 0.96643,-0.34323 0.96643,-0.34251 0.96644,-0.34179 0.96643,-0.34099 0.96643,-0.34024 0.96644,-0.33943 0.96643,-0.3386 0.96643,-0.33777 0.96644,-0.3369 0.96642,-0.33606 0.96644,-0.33516 0.96644,-0.33425 0.96642,-0.33334 0.96644,-0.33241 0.96644,-0.33145 0.96642,-0.3305 0.96644,-0.32954 0.96643,-0.32854 0.96643,-0.32754 0.96644,-0.32654 0.96643,-0.32551 0.96643,-0.32449 0.96644,-0.32344 0.96643,-0.32238 0.96643,-0.32132 0.96643,-0.32026 0.96644,-0.31916 0.96643,-0.31808 0.96643,-0.31699 0.96644,-0.31587 0.96643,-0.31476 0.96643,-0.31363 0.96644,-0.31251 0.96642,-0.31137 0.96644,-0.31024 0.96644,-0.30908 0.96642,-0.30791 0.96644,-0.30678 0.96644,-0.30561 0.96642,-0.30442 0.96644,-0.30326 0.96643,-0.30207 0.96643,-0.30089 0.96644,-0.29971 0.96643,-0.2985 0.96643,-0.29732 0.96644,-0.29612 0.96643,-0.29491 0.96643,-0.29373 0.96643,-0.29249 0.96644,-0.29131 0.96643,-0.29007 0.96643,-0.28887 0.96644,-0.28766 0.96643,-0.28643 0.96643,-0.28521 0.96644,-0.28401 0.96642,-0.28277 0.96644,-0.28156 0.96644,-0.28031 0.96642,-0.27912 0.96644,-0.27788 0.96644,-0.27664 0.96642,-0.27544 0.96644,-0.27421 0.96643,-0.27297 0.96643,-0.27175 0.96644,-0.27053 0.96643,-0.26931 0.96643,-0.26809 0.96644,-0.26686 0.96643,-0.26564 0.96643,-0.26442 0.96643,-0.2632 0.96644,-0.26198 0.96643,-0.26078 0.96643,-0.25954 0.96644,-0.25834 0.96643,-0.25712 0.96643,-0.25572 0.96644,-0.25472 0.96643,-0.25349 0.96643,-0.25232 0.96644,-0.25109 0.96642,-0.24988 0.96644,-0.24871 0.96644,-0.2475 0.96642,-0.24631 0.96644,-0.24513 0.96644,-0.24394 0.96642,-0.24274 0.96644,-0.24157 0.96643,-0.2404 0.96643,-0.23921 0.96644,-0.23802 0.96643,-0.23688 0.96643,-0.2357 0.96644,-0.23454 0.96643,-0.23338 0.96643,-0.23221 0.96643,-0.23107 0.96644,-0.22992 0.96643,-0.22877 0.96643,-0.22762 0.96644,-0.22647 0.96643,-0.22536 0.96643,-0.22421 0.96644,-0.22308 0.96642,-0.22196 0.96644,-0.22083 0.96644,-0.21973 0.96642,-0.2186 0.96644,-0.21748 0.96644,-0.2164 0.96642,-0.21527 0.96644,-0.21417 0.96643,-0.21309 0.96643,-0.21199 0.96644,-0.21091 0.96643,-0.20983 0.96643,-0.20875 0.96644,-0.20766 0.96643,-0.20659 0.96643,-0.20554 0.96643,-0.20447 0.96644,-0.20341 0.96643,-0.20235 0.96643,-0.2013 0.96644,-0.20027 0.96643,-0.19921 0.96643,-0.19817 0.96644,-0.19714 0.96642,-0.19611 0.96644,-0.1951 0.96644,-0.19407 0.96642,-0.19305 0.96644,-0.19205 0.96644,-0.19102 0.96642,-0.19004 0.96644,-0.18901 0.96643,-0.18804 0.96643,-0.18704 0.96644,-0.18607 0.96643,-0.18507 0.96643,-0.18409 0.96644,-0.18314 0.96643,-0.18216 0.96643,-0.18119 0.96643,-0.18023 0.96644,-0.17928 0.96643,-0.17832 0.96643,-0.17737 0.96644,-0.17644 0.96643,-0.17549 0.96643,-0.17457 0.96644,-0.17364 0.96642,-0.1727 0.96644,-0.17179 0.96644,-0.17087 0.96642,-0.16995 0.96644,-0.16907 0.96644,-0.16814 0.96642,-0.16725 0.96644,-0.16635 0.96644,-0.16547 0.96642,-0.16458 0.96644,-0.16376 0.96643,-0.16277 0.96643,-0.16195 0.96644,-0.16112 0.96643,-0.1603 0.96643,-0.15931 0.96644,-0.15848 0.96643,-0.15767 0.96643,-0.15684 0.96643,-0.15601 0.96644,-0.15503 0.96643,-0.1542 0.96643,-0.15338 0.96644,-0.15256 0.96643,-0.15173 0.96643,-0.15107 0.96644,-0.15009 0.96642,-0.14942 0.96644,-0.14861 0.96644,-0.14777 0.96642,-0.14696 0.96644,-0.14613 0.96644,-0.14531 0.96642,-0.14464 0.96644,-0.14383 0.96643,-0.143 0.96643,-0.14234 0.96644,-0.14152 0.96643,-0.14069 0.96643,-0.13987 0.96644,-0.13921 0.96643,-0.13839 0.96643,-0.13773 0.96643,-0.13691 0.96644,-0.13624 0.96643,-0.13542 0.96643,-0.13477 0.96644,-0.13394 0.96643,-0.13328 0.96643,-0.13262 0.96644,-0.1318 0.96642,-0.13114 0.96644,-0.13047 0.96644,-0.12966 0.96642,-0.129 0.96644,-0.12834 0.96644,-0.12768 0.96642,-0.12702 0.96644,-0.12619 0.96643,-0.12554 0.96643,-0.12488 0.96644,-0.12422 0.96643,-0.12356 0.96643,-0.1229 0.96644,-0.12224 0.96643,-0.12158 0.96643,-0.12093 0.96643,-0.12026 0.96644,-0.11961 0.96643,-0.11895 0.96643,-0.11829 0.96644,-0.11763 0.96643,-0.11697 0.96643,-0.11631 0.96644,-0.11565 0.96642,-0.11516 0.96644,-0.1145 0.96644,-0.11384 0.96642,-0.11318 0.96644,-0.11269 0.96644,-0.11203 0.96642,-0.11136 0.96644,-0.11088 0.96643,-0.11021 0.96643,-0.10973 0.96644,-0.10906 0.96643,-0.1084 0.96643,-0.10791 0.96644,-0.10725 0.96643,-0.10676 0.96643,-0.1061 0.96644,-0.1056 0.96643,-0.10494 0.96643,-0.10445 0.96643,-0.10379 0.96644,-0.1033 0.96643,-0.1028 0.96643,-0.10215 0.96644,-0.10164 0.96643,-0.10116 0.96643,-0.10049 0.96644,-0.10001 0.96642,-0.0995 0.96644,-0.0989 0.96644,-0.0984 0.96642,-0.0979 0.96644,-0.0974 0.96644,-0.0969 0.96642,-0.0962 0.96644,-0.0957 0.96643,-0.0952 0.96643,-0.0947 0.96644,-0.0942 0.96643,-0.0937 0.96643,-0.0933 0.96644,-0.0927 0.96643,-0.0923 0.96643,-0.0918 0.96643,-0.0913 0.96644,-0.0908 0.96643,-0.0903 0.96643,-0.0898 0.96644,-0.0893 0.96643,-0.0888 0.96643,-0.0883 0.96644,-0.0878 0.96642,-0.0873 0.96644,-0.087 0.96644,-0.0865 0.96642,-0.086 0.96644,-0.0855 0.96644,-0.085 0.96642,-0.0847"
       id="path144"
       sodipodi:nodetypes="ccccccccccccccccccccccccccccccccccccccccccccccccccccccccccccccccccccccccccccccccccccccccccccccccccccccccccccccccccccccccccccccccccccccccccccccccccccccccccccccccccccccccccccccccccccccccccccccccccccccccccccccccccccccccccccccccccccccccccccccccccccccccccccccccccccccccccccccccccccccccccccccccccccccccccccccccccccccccccccccccccccccccccccccccccccccccccccccccccccccccccccccccccccccccccccccccccccccccccccccccccccccccccccccccccccccccccccccccccccccccccccccccccccccccccccccccccccccccccccccccccccccccccccccccccccccccccccccccccccccccccccccccccc"
       style="fill:none;stroke:#4e79a7;stroke-width:5;stroke-miterlimit:1;stroke-dasharray:none" />
    <path
       d="m 212.02361,29.798079 0.96643,16.247854 0.96644,15.854503 0.96643,15.469709 0.96643,15.093286 0.96644,14.725049 0.96643,14.36484 0.96643,14.01244 0.96643,13.66774 0.96644,13.33051 0.96643,13.00065 0.96643,12.67796 0.96644,12.3623 0.96643,12.05349 0.96643,11.75142 0.96644,11.45596 0.96642,11.16689 0.96644,10.88416 0.96644,10.60758 0.96642,10.33701 0.96644,10.07238 0.96644,9.81349 0.96642,9.56028 0.96644,9.31259 0.96643,9.0703 0.96643,8.83332 0.96644,8.60151 0.96643,8.37478 0.96643,8.15301 0.96644,7.93608 0.96643,7.72393 0.96643,7.51641 0.96643,7.31344 0.96644,7.11492 0.96643,6.92078 0.96643,6.73088 0.96644,6.54518 0.96643,6.36354 0.96643,6.18589 0.96644,6.01219 0.96642,5.8423 0.96644,5.67616 0.96644,5.51368 0.96642,5.35479 0.96644,5.19942 0.96644,5.0475 0.96642,4.89892 0.96644,4.75365 0.96644,4.6116 0.96642,4.47272 0.96644,4.33691 0.96643,4.20411 0.96643,4.07432 0.96644,3.94737 0.96643,3.82327 0.96643,3.70197 0.96644,3.58339 0.96643,3.46741 0.96643,3.35409 0.96643,3.24328 0.96644,3.13499 0.96643,3.02912 0.96643,2.92567 0.96644,2.82452 0.96643,2.72566 0.96643,2.62907 0.96644,2.53465 0.96642,2.44238 0.96644,2.35221 0.96644,2.26411 0.96642,2.178 0.96644,2.09387 0.96644,2.01168 0.96642,1.93137 0.96644,1.85289 0.96643,1.77624 0.96643,1.70134 0.96644,1.62822 0.96643,1.55674 0.96643,1.48694 0.96644,1.41877 0.96643,1.35222 0.96643,1.28717 0.96643,1.22367 0.96644,1.16167 0.96643,1.10114 0.96643,1.042 0.96644,0.98429 0.96643,0.92795 0.96643,0.87295 0.96644,0.81924 0.96642,0.76685 0.96644,0.71567 0.96644,0.66576 0.96642,0.61706 0.96644,0.5695 0.96644,0.52314 0.96642,0.47787 0.96644,0.43373 0.96643,0.39066 0.96643,0.34866 0.96644,0.30768 0.96643,0.26773 0.96643,0.22875 0.96644,0.19078 0.96643,0.15371 0.96643,0.11763 0.96643,0.0824 0.96644,0.0481 0.96643,0.0148 0.96643,-0.018 0.96644,-0.0496 0.96643,-0.0806 0.96643,-0.11071 0.96644,-0.14003 0.96642,-0.1686 0.96644,-0.19641 0.96644,-0.2235 0.96642,-0.24987 0.96644,-0.27553 0.96644,-0.30051 0.96642,-0.32483 0.96644,-0.34846 0.96643,-0.37147 0.96643,-0.39385 0.96644,-0.41559 0.96643,-0.43674 0.96643,-0.45731 0.96644,-0.47729 0.96643,-0.49671 0.96643,-0.51556 0.96644,-0.5339 0.96643,-0.55167 0.96643,-0.56897 0.96643,-0.58571 0.96644,-0.602 0.96643,-0.61779 0.96643,-0.63309 0.96644,-0.64793 0.96643,-0.66233 0.96643,-0.67629 0.96644,-0.6898 0.96642,-0.70289 0.96644,-0.71558 0.96644,-0.72784 0.96642,-0.73971 0.96644,-0.75118 0.96644,-0.76231 0.96642,-0.77304 0.96644,-0.78339 0.96643,-0.79342 0.96643,-0.80308 0.96644,-0.81242 0.96643,-0.82139 0.96643,-0.83008 0.96644,-0.83843 0.96643,-0.84647 0.96643,-0.85422 0.96643,-0.86166 0.96644,-0.86881 0.96643,-0.87568 0.96643,-0.88227 0.96644,-0.8886 0.96643,-0.89466 0.96643,-0.90046 0.96644,-0.90599 0.96642,-0.91132 0.96644,-0.91637 0.96644,-0.9212 0.96642,-0.92578 0.96644,-0.93016 0.96644,-0.93432 0.96642,-0.93825 0.96644,-0.94197 0.96643,-0.9455 0.96643,-0.94883 0.96644,-0.95196 0.96643,-0.95489 0.96643,-0.95764 0.96644,-0.96022 0.96643,-0.9626 0.96643,-0.96484 0.96643,-0.96687 0.96644,-0.96876 0.96643,-0.97049 0.96643,-0.97208 0.96644,-0.97347 0.96643,-0.97475 0.96643,-0.97586 0.96644,-0.97684 0.96642,-0.97767 0.96644,-0.97839 0.96644,-0.97896 0.96642,-0.9794 0.96644,-0.97972 0.96644,-0.97992 0.96642,-0.97998 0.96644,-0.97995 0.96643,-0.9798 0.96643,-0.97954 0.96644,-0.97916 0.96643,-0.97869 0.96643,-0.97811 0.96644,-0.97742 0.96643,-0.97666 0.96643,-0.9758 0.96643,-0.97482 0.96644,-0.97379 0.96643,-0.97263 0.96643,-0.97142 0.96644,-0.97013 0.96643,-0.96873 0.96643,-0.96726 0.96644,-0.96574 0.96643,-0.96413 0.96643,-0.96244 0.96644,-0.96069 0.96642,-0.95886 0.96644,-0.95698 0.96644,-0.95504 0.96642,-0.95301 0.96644,-0.95096 0.96644,-0.94881 0.96642,-0.94664 0.96644,-0.94438 0.96643,-0.94209 0.96643,-0.93975 0.96644,-0.93734 0.96643,-0.93491 0.96643,-0.9324 0.96644,-0.92989 0.96643,-0.92728 0.96643,-0.92467 0.96643,-0.92199 0.96644,-0.91929 0.96643,-0.91656 0.96643,-0.91375 0.96644,-0.91096 0.96643,-0.90808 0.96643,-0.90521 0.96644,-0.90227 0.96642,-0.89933 0.96644,-0.89636 0.96644,-0.89334 0.96642,-0.8903 0.96644,-0.88724 0.96644,-0.88415 0.96642,-0.88104 0.96644,-0.87788 0.96643,-0.87475 0.96643,-0.87154 0.96644,-0.86833 0.96643,-0.86513 0.96643,-0.86187 0.96644,-0.85861 0.96643,-0.85534 0.96643,-0.85204 0.96643,-0.84871 0.96644,-0.8454 0.96643,-0.84205 0.96643,-0.8387 0.96644,-0.83533 0.96643,-0.83196 0.96643,-0.82856 0.96644,-0.82516 0.96642,-0.82174 0.96644,-0.81833 0.96644,-0.81491 0.96642,-0.81144 0.96644,-0.80802 0.96644,-0.80456 0.96642,-0.80112 0.96644,-0.79764 0.96643,-0.79416 0.96643,-0.79071 0.96644,-0.78721 0.96643,-0.78373 0.96643,-0.78026 0.96644,-0.77677 0.96643,-0.77329 0.96643,-0.76978 0.96643,-0.76629 0.96644,-0.76281 0.96643,-0.7593 0.96643,-0.75583 0.96644,-0.75232 0.96643,-0.74884 0.96643,-0.74535 0.96644,-0.74186 0.96642,-0.73836 0.96644,-0.73489 0.96644,-0.73141 0.96642,-0.72792 0.96644,-0.72446 0.96644,-0.72098 0.96642,-0.71753 0.96644,-0.71404 0.96644,-0.71061 0.96642,-0.70714 0.96644,-0.7037 0.96643,-0.70026 0.96643,-0.69683 0.96644,-0.69339 0.96643,-0.68998 0.96643,-0.68655 0.96644,-0.68315 0.96643,-0.67975 0.96643,-0.67634 0.96643,-0.67296 0.96644,-0.66958 0.96643,-0.66622 0.96643,-0.66284 0.96644,-0.65949 0.96643,-0.65614 0.96643,-0.65281 0.96644,-0.64948 0.96642,-0.64616 0.96644,-0.64284 0.96644,-0.63953 0.96642,-0.63625 0.96644,-0.63298 0.96644,-0.6297 0.96642,-0.62641 0.96644,-0.62319 0.96643,-0.61993 0.96643,-0.61672 0.96644,-0.61348 0.96643,-0.61027 0.96643,-0.60708 0.96644,-0.60388 0.96643,-0.6007 0.96643,-0.59754 0.96643,-0.59439 0.96644,-0.59123 0.96643,-0.5881 0.96643,-0.58498 0.96644,-0.58187 0.96643,-0.57878 0.96643,-0.57569 0.96644,-0.5726 0.96642,-0.56954 0.96644,-0.5665 0.96644,-0.56345 0.96642,-0.56042 0.96644,-0.55741 0.96644,-0.55441 0.96642,-0.55141 0.96644,-0.54842 0.96643,-0.54546 0.96643,-0.54252 0.96644,-0.53956 0.96643,-0.53663 0.96643,-0.53373 0.96644,-0.5308 0.96643,-0.52792 0.96643,-0.52505 0.96643,-0.52216 0.96644,-0.51932 0.96643,-0.51647 0.96643,-0.51364 0.96644,-0.51082 0.96643,-0.50801 0.96643,-0.50523 0.96644,-0.50245 0.96642,-0.49968 0.96644,-0.49693 0.96644,-0.49417 0.96642,-0.49146 0.96644,-0.48874 0.96644,-0.48602 0.96642,-0.48335 0.96644,-0.48065 0.96643,-0.478 0.96643,-0.47534 0.96644,-0.47271 0.96643,-0.47007 0.96643,-0.46747 0.96644,-0.46486 0.96643,-0.46226 0.96643,-0.45969 0.96644,-0.45713 0.96643,-0.45458 0.96643,-0.45204 0.96643,-0.44951 0.96644,-0.44699 0.96643,-0.44451 0.96643,-0.442 0.96644,-0.43953 0.96643,-0.43707 0.96643,-0.4346 0.96644,-0.43219 0.96642,-0.42974 0.96644,-0.42734 0.96644,-0.42493 0.96642,-0.42254 0.96644,-0.42017 0.96644,-0.4178 0.96642,-0.41545 0.96644,-0.41312 0.96643,-0.41078 0.96643,-0.40845 0.96644,-0.40617 0.96643,-0.40386 0.96643,-0.40159 0.96644,-0.39931 0.96643,-0.39708 0.96643,-0.39481 0.96643,-0.3926 0.96644,-0.39037 0.96643,-0.38816 0.96643,-0.38597 0.96644,-0.38378 0.96643,-0.3816 0.96643,-0.37944 0.96644,-0.37729 0.96642,-0.37516 0.96644,-0.37304 0.96644,-0.37091 0.96642,-0.36882 0.96644,-0.36673 0.96644,-0.36464 0.96642,-0.36257"
       id="path148"
       sodipodi:nodetypes="cccccccccccccccccccccccccccccccccccccccccccccccccccccccccccccccccccccccccccccccccccccccccccccccccccccccccccccccccccccccccccccccccccccccccccccccccccccccccccccccccccccccccccccccccccccccccccccccccccccccccccccccccccccccccccccccccccccccccccccccccccccccccccccccccccccccccccccccccccccccccccccccccccccccccccccccccccccccccccccccccccccccccccccccccccccccccccccccccccccccccccccccccccccccccccccccccccccccccccccccccccccccccccccccccccccc"
       style="fill:none;stroke:#e15759;stroke-width:5;stroke-miterlimit:1;stroke-dasharray:none" />
    <text
       dy="-44.470192"
       x="542.59015"
       y="338.15237"
       id="text156"
       style="font-size:44.4702px;fill:#4e79a7;stroke-width:3.70584">Energy</text>
    <text
       dy="-45.023907"
       x="560.59888"
       y="552.89246"
       id="text160"
       style="font-size:45.0239px;fill:#e15759;stroke-width:3.75199">Force</text>
  </g>
</svg>
