<svg viewBox="-12.5,-12.5,25,25" width="1152" height="500" xmlns="http://www.w3.org/2000/svg" xmlns:xlink="http://www.w3.org/1999/xlink"><circle class="node" cx="2.87834397474236" cy="9.763719144304751" r="0.5" fill="rgb(206, 231, 56)"/><circle class="node" cx="1.8759922497373398" cy="9.776047481224822" r="0.5" fill="rgb(69, 245, 140)"/><circle class="node" cx="0.8711324273916092" cy="9.79366786217264" r="0.5" fill="rgb(71, 246, 138)"/><circle class="node" cx="-0.15457291923800576" cy="9.841945376422785" r="0.5" fill="rgb(72, 247, 136)"/><circle class="node" cx="-1.1693033306368266" cy="9.888909724363119" r="0.5" fill="rgb(70, 246, 138)"/><circle class="node" cx="-2.1790650954436805" cy="9.93275310708065" r="0.5" fill="rgb(205, 231, 56)"/><circle class="node" cx="5.51071929258047" cy="8.80232386916652" r="0.5" fill="rgb(209, 229, 55)"/><circle class="node" cx="4.4811386209356225" cy="8.850365772399227" r="0.5" fill="rgb(82, 250, 126)"/><circle class="node" cx="3.4285188397336537" cy="8.899407104660268" r="0.5" fill="rgb(43, 168, 240)"/><circle class="node" cx="2.3886528582598405" cy="8.903605739930196" r="0.5" fill="rgb(36, 24, 31)"/><circle class="node" cx="1.358480183887194" cy="8.92104160854341" r="0.5" fill="rgb(35, 23, 27)"/><circle class="node" cx="0.32053831390964255" cy="8.95532868498397" r="0.5" fill="rgb(36, 24, 31)"/><circle class="node" cx="-0.7095412645254152" cy="9.002216740236463" r="0.5" fill="rgb(35, 23, 27)"/><circle class="node" cx="-1.7330351549324372" cy="9.052354263925908" r="0.5" fill="rgb(35, 24, 29)"/><circle class="node" cx="-2.765063411419203" cy="9.105562861750634" r="0.5" fill="rgb(45, 163, 242)"/><circle class="node" cx="-3.810607925116422" cy="9.141716233709607" r="0.5" fill="rgb(78, 249, 130)"/><circle class="node" cx="-4.820089476466058" cy="9.156965424938672" r="0.5" fill="rgb(207, 230, 56)"/><circle class="node" cx="5.9951218926636365" cy="7.912620222582568" r="0.5" fill="rgb(78, 249, 130)"/><circle class="node" cx="4.982036770955935" cy="7.960126627385484" r="0.5" fill="rgb(52, 34, 80)"/><circle class="node" cx="3.950888148179331" cy="8.012989795633985" r="0.5" fill="rgb(35, 23, 27)"/><circle class="node" cx="2.9116684655589933" cy="8.046287613668646" r="0.5" fill="rgb(38, 25, 36)"/><circle class="node" cx="1.8750145963990743" cy="8.041493936934243" r="0.5" fill="rgb(35, 23, 27)"/><circle class="node" cx="0.8166372046837791" cy="8.068975015796065" r="0.5" fill="rgb(35, 23, 27)"/><circle class="node" cx="-0.22365813846271967" cy="8.113266980816014" r="0.5" fill="rgb(35, 23, 27)"/><circle class="node" cx="-1.2662706520998808" cy="8.15528690522311" r="0.5" fill="rgb(35, 23, 27)"/><circle class="node" cx="-2.3086425700167568" cy="8.211059826651365" r="0.5" fill="rgb(35, 23, 27)"/><circle class="node" cx="-3.3408912400103605" cy="8.256124500605146" r="0.5" fill="rgb(40, 26, 43)"/><circle class="node" cx="-4.3676999479664" cy="8.27967157757803" r="0.5" fill="rgb(39, 26, 40)"/><circle class="node" cx="-5.378425341237246" cy="8.295804827854013" r="0.5" fill="rgb(70, 246, 139)"/><circle class="node" cx="7.515738554411798" cy="6.882719925893037" r="0.5" fill="rgb(216, 225, 53)"/><circle class="node" cx="6.510991648762393" cy="6.992920048001422" r="0.5" fill="rgb(42, 171, 238)"/><circle class="node" cx="5.481985170957292" cy="7.053330308236994" r="0.5" fill="rgb(37, 24, 33)"/><circle class="node" cx="4.458212165735214" cy="7.1129166259092225" r="0.5" fill="rgb(35, 24, 30)"/><circle class="node" cx="3.415348576984977" cy="7.1702271929035595" r="0.5" fill="rgb(46, 30, 61)"/><circle class="node" cx="2.38777970439042" cy="7.18079061598548" r="0.5" fill="rgb(52, 33, 78)"/><circle class="node" cx="1.3283536068203898" cy="7.198407564277035" r="0.5" fill="rgb(50, 32, 73)"/><circle class="node" cx="0.2596069340953718" cy="7.227068487740173" r="0.5" fill="rgb(45, 29, 57)"/><circle class="node" cx="-0.7870428298055139" cy="7.275692486700825" r="0.5" fill="rgb(54, 35, 85)"/><circle class="node" cx="-1.8446117620221765" cy="7.322918598940073" r="0.5" fill="rgb(50, 32, 73)"/><circle class="node" cx="-2.874242026162679" cy="7.366583841946457" r="0.5" fill="rgb(44, 28, 53)"/><circle class="node" cx="-3.909659893067631" cy="7.400318493903948" r="0.5" fill="rgb(35, 23, 27)"/><circle class="node" cx="-4.9374679928716505" cy="7.4170772135257526" r="0.5" fill="rgb(44, 28, 55)"/><circle class="node" cx="-5.963923734673329" cy="7.432200910757393" r="0.5" fill="rgb(43, 168, 240)"/><circle class="node" cx="-6.988254406335213" cy="7.398928565579766" r="0.5" fill="rgb(206, 231, 56)"/><circle class="node" cx="7.985942864673876" cy="5.977959290583957" r="0.5" fill="rgb(72, 246, 137)"/><circle class="node" cx="6.985495647382357" cy="6.055439789401027" r="0.5" fill="rgb(49, 31, 69)"/><circle class="node" cx="5.980406114815402" cy="6.129359139910876" r="0.5" fill="rgb(39, 26, 41)"/><circle class="node" cx="4.957905678709567" cy="6.201422213696442" r="0.5" fill="rgb(54, 35, 86)"/><circle class="node" cx="3.9241717238856673" cy="6.267279332391141" r="0.5" fill="rgb(45, 29, 58)"/><circle class="node" cx="2.8994293067824684" cy="6.2899961740433925" r="0.5" fill="rgb(66, 47, 131)"/><circle class="node" cx="1.8345440752242335" cy="6.313531429920905" r="0.5" fill="rgb(66, 47, 132)"/><circle class="node" cx="0.7744617823056783" cy="6.344825004987145" r="0.5" fill="rgb(64, 44, 122)"/><circle class="node" cx="-0.28606492052258514" cy="6.381290618614465" r="0.5" fill="rgb(63, 44, 121)"/><circle class="node" cx="-1.3447122650197305" cy="6.427499441238936" r="0.5" fill="rgb(65, 45, 126)"/><circle class="node" cx="-2.3997238139037074" cy="6.466936480961556" r="0.5" fill="rgb(58, 38, 98)"/><circle class="node" cx="-3.44060467803969" cy="6.5044254409783715" r="0.5" fill="rgb(59, 39, 102)"/><circle class="node" cx="-4.4676568765619855" cy="6.5334577095584105" r="0.5" fill="rgb(35, 23, 27)"/><circle class="node" cx="-5.493506121360252" cy="6.549717229159514" r="0.5" fill="rgb(35, 23, 27)"/><circle class="node" cx="-6.511047841624382" cy="6.5361846895567055" r="0.5" fill="rgb(44, 28, 54)"/><circle class="node" cx="-7.526174817610521" cy="6.547751815784389" r="0.5" fill="rgb(71, 246, 138)"/><circle class="node" cx="8.476490628044727" cy="5.078107487076826" r="0.5" fill="rgb(72, 247, 137)"/><circle class="node" cx="7.472114207642298" cy="5.127233492982534" r="0.5" fill="rgb(41, 27, 46)"/><circle class="node" cx="6.463895617385177" cy="5.19062371640799" r="0.5" fill="rgb(35, 23, 27)"/><circle class="node" cx="5.451945428211332" cy="5.272354417817419" r="0.5" fill="rgb(60, 40, 106)"/><circle class="node" cx="4.428939802500392" cy="5.34150721769414" r="0.5" fill="rgb(64, 44, 122)"/><circle class="node" cx="3.3967067347604876" cy="5.386103808551067" r="0.5" fill="rgb(68, 50, 141)"/><circle class="node" cx="2.359503464264592" cy="5.424090982103934" r="0.5" fill="rgb(74, 64, 179)"/><circle class="node" cx="1.2814441652300612" cy="5.453607857201702" r="0.5" fill="rgb(72, 58, 164)"/><circle class="node" cx="0.21535695664881457" cy="5.478609160068696" r="0.5" fill="rgb(69, 52, 149)"/><circle class="node" cx="-0.846795231918687" cy="5.524934545714695" r="0.5" fill="rgb(75, 70, 193)"/><circle class="node" cx="-1.9149032673241266" cy="5.561505854667048" r="0.5" fill="rgb(74, 65, 180)"/><circle class="node" cx="-2.9688887306841956" cy="5.609638881468405" r="0.5" fill="rgb(70, 53, 151)"/><circle class="node" cx="-4.002158252620718" cy="5.641693918026475" r="0.5" fill="rgb(60, 40, 106)"/><circle class="node" cx="-5.03130429580557" cy="5.652969526813263" r="0.5" fill="rgb(51, 33, 76)"/><circle class="node" cx="-6.042472697146785" cy="5.65088194108406" r="0.5" fill="rgb(40, 26, 42)"/><circle class="node" cx="-7.061067789831984" cy="5.662934695639021" r="0.5" fill="rgb(35, 23, 27)"/><circle class="node" cx="-8.069096453033595" cy="5.684279332379075" r="0.5" fill="rgb(74, 247, 135)"/><circle class="node" cx="8.962463942386398" cy="4.180091335979048" r="0.5" fill="rgb(71, 246, 138)"/><circle class="node" cx="7.967902499098762" cy="4.216626249307222" r="0.5" fill="rgb(35, 23, 27)"/><circle class="node" cx="6.955226140882479" cy="4.267752001714955" r="0.5" fill="rgb(35, 23, 27)"/><circle class="node" cx="5.945600799765871" cy="4.324127690331735" r="0.5" fill="rgb(46, 29, 60)"/><circle class="node" cx="4.928183719308813" cy="4.400342196034921" r="0.5" fill="rgb(68, 51, 144)"/><circle class="node" cx="3.8967777468363436" cy="4.467473932426804" r="0.5" fill="rgb(74, 64, 178)"/><circle class="node" cx="2.8606468580371" cy="4.495741431108954" r="0.5" fill="rgb(74, 63, 177)"/><circle class="node" cx="1.8038871545095978" cy="4.5504497468245315" r="0.5" fill="rgb(75, 79, 208)"/><circle class="node" cx="0.7234776416942819" cy="4.584645830343692" r="0.5" fill="rgb(75, 76, 202)"/><circle class="node" cx="-0.341606570443428" cy="4.6103680659075925" r="0.5" fill="rgb(74, 84, 215)"/><circle class="node" cx="-1.4318843117284308" cy="4.648227683985496" r="0.5" fill="rgb(75, 81, 211)"/><circle class="node" cx="-2.4939655187842797" cy="4.690650655590754" r="0.5" fill="rgb(74, 63, 177)"/><circle class="node" cx="-3.5474650364073126" cy="4.727981479227181" r="0.5" fill="rgb(67, 48, 134)"/><circle class="node" cx="-4.580775535100695" cy="4.740881853133685" r="0.5" fill="rgb(64, 44, 122)"/><circle class="node" cx="-5.601155523591387" cy="4.739066607767682" r="0.5" fill="rgb(48, 31, 66)"/><circle class="node" cx="-6.60875324435842" cy="4.75879954943191" r="0.5" fill="rgb(35, 23, 27)"/><circle class="node" cx="-7.622005585236275" cy="4.788561684174941" r="0.5" fill="rgb(37, 24, 34)"/><circle class="node" cx="-8.621195269670263" cy="4.809888954288926" r="0.5" fill="rgb(73, 247, 136)"/><circle class="node" cx="9.447359693065367" cy="3.290433067250402" r="0.5" fill="rgb(64, 243, 146)"/><circle class="node" cx="8.446565124168417" cy="3.313809460590631" r="0.5" fill="rgb(35, 23, 27)"/><circle class="node" cx="7.44505438906581" cy="3.3558428325944307" r="0.5" fill="rgb(42, 27, 48)"/><circle class="node" cx="6.432461714054778" cy="3.3987184423501127" r="0.5" fill="rgb(51, 33, 77)"/><circle class="node" cx="5.420580175002197" cy="3.4504865759018633" r="0.5" fill="rgb(65, 46, 128)"/><circle class="node" cx="4.395050223924858" cy="3.5135281416349105" r="0.5" fill="rgb(73, 62, 173)"/><circle class="node" cx="3.3501943482008243" cy="3.5768128559191257" r="0.5" fill="rgb(74, 65, 182)"/><circle class="node" cx="2.304259273747306" cy="3.6216641193951036" r="0.5" fill="rgb(75, 75, 201)"/><circle class="node" cx="1.2399373133464726" cy="3.670542772293821" r="0.5" fill="rgb(72, 95, 229)"/><circle class="node" cx="0.16209476585591398" cy="3.70302780234448" r="0.5" fill="rgb(68, 107, 239)"/><circle class="node" cx="-0.934256069983822" cy="3.7331134974058444" r="0.5" fill="rgb(69, 103, 236)"/><circle class="node" cx="-2.0033521114280317" cy="3.783900232874787" r="0.5" fill="rgb(75, 77, 205)"/><circle class="node" cx="-3.058000064088036" cy="3.82283536560187" r="0.5" fill="rgb(74, 68, 188)"/><circle class="node" cx="-4.105558084076374" cy="3.844661843264869" r="0.5" fill="rgb(70, 54, 153)"/><circle class="node" cx="-5.134827032250843" cy="3.843068598952034" r="0.5" fill="rgb(58, 38, 98)"/><circle class="node" cx="-6.157225225810302" cy="3.8536181971055723" r="0.5" fill="rgb(35, 23, 27)"/><circle class="node" cx="-7.170437879283919" cy="3.886236396654069" r="0.5" fill="rgb(35, 23, 27)"/><circle class="node" cx="-8.16512550412318" cy="3.9102466034440053" r="0.5" fill="rgb(40, 26, 42)"/><circle class="node" cx="-9.159063324971678" cy="3.9493899247544118" r="0.5" fill="rgb(73, 247, 136)"/><circle class="node" cx="9.921440677183186" cy="2.402146305210359" r="0.5" fill="rgb(205, 231, 56)"/><circle class="node" cx="8.926827990521934" cy="2.414997606442239" r="0.5" fill="rgb(40, 26, 41)"/><circle class="node" cx="7.928498891943159" cy="2.4309174765512687" r="0.5" fill="rgb(51, 32, 74)"/><circle class="node" cx="6.928063635013126" cy="2.4763152501424868" r="0.5" fill="rgb(62, 42, 115)"/><circle class="node" cx="5.906877140849397" cy="2.5158108467185354" r="0.5" fill="rgb(71, 55, 157)"/><circle class="node" cx="4.877929641684295" cy="2.5687269042263376" r="0.5" fill="rgb(74, 66, 183)"/><circle class="node" cx="3.8333728921497636" cy="2.636839589748457" r="0.5" fill="rgb(75, 78, 206)"/><circle class="node" cx="2.794698878549762" cy="2.6985399475572063" r="0.5" fill="rgb(73, 92, 225)"/><circle class="node" cx="1.7307028244894924" cy="2.7335642977942705" r="0.5" fill="rgb(70, 100, 234)"/><circle class="node" cx="0.6636588013190554" cy="2.7662785563716934" r="0.5" fill="rgb(63, 119, 246)"/><circle class="node" cx="-0.4325358611983458" cy="2.8013946466666413" r="0.5" fill="rgb(61, 124, 247)"/><circle class="node" cx="-1.5255602245078428" cy="2.8464173199397647" r="0.5" fill="rgb(66, 111, 242)"/><circle class="node" cx="-2.583427261078842" cy="2.8907274268548844" r="0.5" fill="rgb(73, 91, 225)"/><circle class="node" cx="-3.624404031685446" cy="2.917905574935455" r="0.5" fill="rgb(74, 82, 212)"/><circle class="node" cx="-4.672413027965744" cy="2.932033094365248" r="0.5" fill="rgb(72, 59, 167)"/><circle class="node" cx="-5.692391751498477" cy="2.954265576863987" r="0.5" fill="rgb(61, 41, 110)"/><circle class="node" cx="-6.713645660959282" cy="2.973068498619606" r="0.5" fill="rgb(51, 33, 77)"/><circle class="node" cx="-7.720591470805215" cy="2.9933314742669945" r="0.5" fill="rgb(35, 23, 27)"/><circle class="node" cx="-8.72279582441729" cy="3.028401545632857" r="0.5" fill="rgb(38, 25, 36)"/><circle class="node" cx="-9.71618536533892" cy="3.0887557854558536" r="0.5" fill="rgb(216, 225, 52)"/><circle class="node" cx="9.435177917528392" cy="1.5043477978987807" r="0.5" fill="rgb(40, 180, 232)"/><circle class="node" cx="8.438213647796681" cy="1.512890532441091" r="0.5" fill="rgb(35, 24, 29)"/><circle class="node" cx="7.4274661946976845" cy="1.5395375690133373" r="0.5" fill="rgb(49, 31, 70)"/><circle class="node" cx="6.40206559395991" cy="1.5730135681379716" r="0.5" fill="rgb(71, 57, 161)"/><circle class="node" cx="5.383159327384775" cy="1.6286911243037627" r="0.5" fill="rgb(74, 65, 182)"/><circle class="node" cx="4.339858299228483" cy="1.689742837382638" r="0.5" fill="rgb(75, 78, 206)"/><circle class="node" cx="3.2951076746814465" cy="1.7292303130439075" r="0.5" fill="rgb(71, 98, 232)"/><circle class="node" cx="2.229871307732428" cy="1.785123535392369" r="0.5" fill="rgb(65, 115, 244)"/><circle class="node" cx="1.1668971337982688" cy="1.8268392375059326" r="0.5" fill="rgb(63, 119, 246)"/><circle class="node" cx="0.07072939881389377" cy="1.8683604199617823" r="0.5" fill="rgb(59, 129, 248)"/><circle class="node" cx="-1.0062582840839802" cy="1.9048316608269742" r="0.5" fill="rgb(62, 122, 247)"/><circle class="node" cx="-2.0933184007594" cy="1.9380540498751164" r="0.5" fill="rgb(66, 113, 243)"/><circle class="node" cx="-3.1570708870975954" cy="1.981924559126927" r="0.5" fill="rgb(70, 102, 235)"/><circle class="node" cx="-4.196141206755312" cy="2.0026600954457807" r="0.5" fill="rgb(74, 81, 212)"/><circle class="node" cx="-5.2309147266529985" cy="2.0260772874082495" r="0.5" fill="rgb(74, 66, 182)"/><circle class="node" cx="-6.260948750050714" cy="2.0598757649173156" r="0.5" fill="rgb(66, 48, 134)"/><circle class="node" cx="-7.281287651839324" cy="2.087032185015254" r="0.5" fill="rgb(55, 36, 88)"/><circle class="node" cx="-8.284565965494684" cy="2.114597307082732" r="0.5" fill="rgb(35, 23, 27)"/><circle class="node" cx="-9.283438226429723" cy="2.1692054930416" r="0.5" fill="rgb(45, 163, 242)"/><circle class="node" cx="9.878309706911715" cy="0.5651297225171447" r="0.5" fill="rgb(212, 227, 54)"/><circle class="node" cx="8.899091717269728" cy="0.5954925435284746" r="0.5" fill="rgb(54, 35, 85)"/><circle class="node" cx="7.907793762741308" cy="0.6208841023351392" r="0.5" fill="rgb(65, 45, 126)"/><circle class="node" cx="6.893989678624236" cy="0.6473958376010468" r="0.5" fill="rgb(67, 49, 137)"/><circle class="node" cx="5.880125023813884" cy="0.6864965518718846" r="0.5" fill="rgb(71, 55, 155)"/><circle class="node" cx="4.845690263111714" cy="0.7414074579364269" r="0.5" fill="rgb(75, 70, 191)"/><circle class="node" cx="3.811671110565169" cy="0.7917006173936004" r="0.5" fill="rgb(74, 87, 220)"/><circle class="node" cx="2.752541141367553" cy="0.8315329549985584" r="0.5" fill="rgb(63, 120, 246)"/><circle class="node" cx="1.6734190661874737" cy="0.876073293290345" r="0.5" fill="rgb(58, 131, 249)"/><circle class="node" cx="0.5846511259385276" cy="0.9314121860145613" r="0.5" fill="rgb(48, 154, 246)"/><circle class="node" cx="-0.525401128816231" cy="0.9577484830243087" r="0.5" fill="rgb(53, 143, 248)"/><circle class="node" cx="-1.5964441428812437" cy="0.9982909753331872" r="0.5" fill="rgb(64, 118, 245)"/><circle class="node" cx="-2.656251740790071" cy="1.0344603015653369" r="0.5" fill="rgb(63, 120, 246)"/><circle class="node" cx="-3.744585197312933" cy="1.0642610618678447" r="0.5" fill="rgb(71, 99, 232)"/><circle class="node" cx="-4.7718907302267235" cy="1.0865743481152803" r="0.5" fill="rgb(75, 71, 193)"/><circle class="node" cx="-5.797863262529342" cy="1.1309702719247685" r="0.5" fill="rgb(73, 60, 169)"/><circle class="node" cx="-6.837047069844766" cy="1.1656213018896633" r="0.5" fill="rgb(66, 47, 131)"/><circle class="node" cx="-7.837284662224065" cy="1.1884061236537653" r="0.5" fill="rgb(56, 37, 94)"/><circle class="node" cx="-8.847302471218182" cy="1.2313341533863829" r="0.5" fill="rgb(64, 44, 123)"/><circle class="node" cx="-9.835185219211533" cy="1.2816131161074447" r="0.5" fill="rgb(225, 219, 49)"/><circle class="node" cx="9.399103409911515" cy="-0.3408430096654991" r="0.5" fill="rgb(39, 183, 229)"/><circle class="node" cx="8.402477945063268" cy="-0.30982673765342456" r="0.5" fill="rgb(42, 27, 49)"/><circle class="node" cx="7.384842005909895" cy="-0.26460882154306775" r="0.5" fill="rgb(58, 38, 100)"/><circle class="node" cx="6.352681978444955" cy="-0.24822253074879475" r="0.5" fill="rgb(70, 53, 150)"/><circle class="node" cx="5.337301700685686" cy="-0.1919667680370679" r="0.5" fill="rgb(72, 59, 167)"/><circle class="node" cx="4.30247855335589" cy="-0.1539005774600204" r="0.5" fill="rgb(75, 74, 200)"/><circle class="node" cx="3.2588714350460166" cy="-0.125788581293931" r="0.5" fill="rgb(64, 117, 245)"/><circle class="node" cx="2.174699850791457" cy="-0.08193804348069081" r="0.5" fill="rgb(59, 130, 248)"/><circle class="node" cx="1.1022841392823806" cy="-0.041198603255873587" r="0.5" fill="rgb(51, 147, 248)"/><circle class="node" cx="3.845333339941408e-15" cy="-4.223429331956481e-15" r="0.5" fill="rgb(42, 172, 238)"/><circle class="node" cx="-1.102284139282373" cy="0.04119860325586629" r="0.5" fill="rgb(51, 147, 248)"/><circle class="node" cx="-2.17469985079145" cy="0.08193804348068574" r="0.5" fill="rgb(59, 130, 248)"/><circle class="node" cx="-3.2588714350460157" cy="0.12578858129393383" r="0.5" fill="rgb(64, 117, 245)"/><circle class="node" cx="-4.302478553355891" cy="0.15390057746001656" r="0.5" fill="rgb(75, 74, 200)"/><circle class="node" cx="-5.337301700685698" cy="0.19196676803706259" r="0.5" fill="rgb(72, 59, 167)"/><circle class="node" cx="-6.35268197844496" cy="0.2482225307487873" r="0.5" fill="rgb(70, 53, 150)"/><circle class="node" cx="-7.384842005909889" cy="0.2646088215430678" r="0.5" fill="rgb(58, 38, 100)"/><circle class="node" cx="-8.402477945063266" cy="0.30982673765341684" r="0.5" fill="rgb(42, 27, 49)"/><circle class="node" cx="-9.399103409911515" cy="0.34084300966548736" r="0.5" fill="rgb(39, 183, 229)"/><circle class="node" cx="9.835185219211535" cy="-1.2816131161074495" r="0.5" fill="rgb(225, 219, 49)"/><circle class="node" cx="8.847302471218189" cy="-1.231334153386387" r="0.5" fill="rgb(64, 44, 123)"/><circle class="node" cx="7.837284662224069" cy="-1.1884061236537606" r="0.5" fill="rgb(56, 37, 94)"/><circle class="node" cx="6.837047069844777" cy="-1.165621301889666" r="0.5" fill="rgb(66, 47, 131)"/><circle class="node" cx="5.797863262529342" cy="-1.1309702719247703" r="0.5" fill="rgb(73, 60, 169)"/><circle class="node" cx="4.771890730226722" cy="-1.086574348115274" r="0.5" fill="rgb(75, 71, 193)"/><circle class="node" cx="3.744585197312928" cy="-1.0642610618678507" r="0.5" fill="rgb(71, 99, 232)"/><circle class="node" cx="2.656251740790074" cy="-1.0344603015653488" r="0.5" fill="rgb(63, 120, 246)"/><circle class="node" cx="1.5964441428812377" cy="-0.9982909753331868" r="0.5" fill="rgb(64, 118, 245)"/><circle class="node" cx="0.5254011288162305" cy="-0.9577484830243068" r="0.5" fill="rgb(53, 143, 248)"/><circle class="node" cx="-0.5846511259385259" cy="-0.9314121860145607" r="0.5" fill="rgb(48, 154, 246)"/><circle class="node" cx="-1.673419066187472" cy="-0.8760732932903469" r="0.5" fill="rgb(58, 131, 249)"/><circle class="node" cx="-2.7525411413675456" cy="-0.8315329549985626" r="0.5" fill="rgb(63, 120, 246)"/><circle class="node" cx="-3.811671110565164" cy="-0.7917006173935971" r="0.5" fill="rgb(74, 87, 220)"/><circle class="node" cx="-4.845690263111718" cy="-0.7414074579364317" r="0.5" fill="rgb(75, 70, 191)"/><circle class="node" cx="-5.88012502381388" cy="-0.6864965518718786" r="0.5" fill="rgb(71, 55, 155)"/><circle class="node" cx="-6.893989678624233" cy="-0.6473958376010452" r="0.5" fill="rgb(67, 49, 137)"/><circle class="node" cx="-7.9077937627413055" cy="-0.620884102335138" r="0.5" fill="rgb(65, 45, 126)"/><circle class="node" cx="-8.899091717269723" cy="-0.5954925435284733" r="0.5" fill="rgb(54, 35, 85)"/><circle class="node" cx="-9.878309706911708" cy="-0.5651297225171557" r="0.5" fill="rgb(212, 227, 54)"/><circle class="node" cx="9.283438226429723" cy="-2.1692054930415985" r="0.5" fill="rgb(45, 163, 242)"/><circle class="node" cx="8.284565965494684" cy="-2.1145973070827266" r="0.5" fill="rgb(35, 23, 27)"/><circle class="node" cx="7.281287651839328" cy="-2.087032185015259" r="0.5" fill="rgb(55, 36, 88)"/><circle class="node" cx="6.260948750050709" cy="-2.0598757649173245" r="0.5" fill="rgb(66, 48, 134)"/><circle class="node" cx="5.230914726652991" cy="-2.026077287408243" r="0.5" fill="rgb(74, 66, 182)"/><circle class="node" cx="4.196141206755311" cy="-2.0026600954457803" r="0.5" fill="rgb(74, 81, 212)"/><circle class="node" cx="3.1570708870975985" cy="-1.9819245591269412" r="0.5" fill="rgb(70, 102, 235)"/><circle class="node" cx="2.09331840075939" cy="-1.938054049875116" r="0.5" fill="rgb(66, 113, 243)"/><circle class="node" cx="1.0062582840839684" cy="-1.9048316608269644" r="0.5" fill="rgb(62, 122, 247)"/><circle class="node" cx="-0.070729398813905" cy="-1.8683604199617863" r="0.5" fill="rgb(59, 129, 248)"/><circle class="node" cx="-1.1668971337982659" cy="-1.8268392375059392" r="0.5" fill="rgb(63, 119, 246)"/><circle class="node" cx="-2.229871307732431" cy="-1.7851235353923747" r="0.5" fill="rgb(65, 115, 244)"/><circle class="node" cx="-3.2951076746814416" cy="-1.729230313043901" r="0.5" fill="rgb(71, 98, 232)"/><circle class="node" cx="-4.33985829922848" cy="-1.6897428373826282" r="0.5" fill="rgb(75, 78, 206)"/><circle class="node" cx="-5.383159327384767" cy="-1.6286911243037592" r="0.5" fill="rgb(74, 65, 182)"/><circle class="node" cx="-6.402065593959905" cy="-1.5730135681379707" r="0.5" fill="rgb(71, 57, 161)"/><circle class="node" cx="-7.427466194697687" cy="-1.5395375690133382" r="0.5" fill="rgb(49, 31, 70)"/><circle class="node" cx="-8.438213647796676" cy="-1.512890532441088" r="0.5" fill="rgb(35, 24, 29)"/><circle class="node" cx="-9.435177917528382" cy="-1.504347797898773" r="0.5" fill="rgb(40, 180, 232)"/><circle class="node" cx="9.716185365338918" cy="-3.0887557854558505" r="0.5" fill="rgb(216, 225, 52)"/><circle class="node" cx="8.722795824417274" cy="-3.0284015456328595" r="0.5" fill="rgb(38, 25, 36)"/><circle class="node" cx="7.720591470805216" cy="-2.993331474266993" r="0.5" fill="rgb(35, 23, 27)"/><circle class="node" cx="6.713645660959282" cy="-2.9730684986196048" r="0.5" fill="rgb(51, 33, 77)"/><circle class="node" cx="5.692391751498473" cy="-2.9542655768639863" r="0.5" fill="rgb(61, 41, 110)"/><circle class="node" cx="4.672413027965742" cy="-2.932033094365241" r="0.5" fill="rgb(72, 59, 167)"/><circle class="node" cx="3.6244040316854447" cy="-2.9179055749354568" r="0.5" fill="rgb(74, 82, 212)"/><circle class="node" cx="2.583427261078842" cy="-2.890727426854884" r="0.5" fill="rgb(73, 91, 225)"/><circle class="node" cx="1.5255602245078288" cy="-2.8464173199397753" r="0.5" fill="rgb(66, 111, 242)"/><circle class="node" cx="0.4325358611983491" cy="-2.801394646666631" r="0.5" fill="rgb(61, 124, 247)"/><circle class="node" cx="-0.6636588013190579" cy="-2.766278556371696" r="0.5" fill="rgb(63, 119, 246)"/><circle class="node" cx="-1.730702824489493" cy="-2.7335642977942722" r="0.5" fill="rgb(70, 100, 234)"/><circle class="node" cx="-2.794698878549766" cy="-2.69853994755721" r="0.5" fill="rgb(73, 92, 225)"/><circle class="node" cx="-3.8333728921497725" cy="-2.63683958974846" r="0.5" fill="rgb(75, 78, 206)"/><circle class="node" cx="-4.877929641684296" cy="-2.5687269042263416" r="0.5" fill="rgb(74, 66, 183)"/><circle class="node" cx="-5.9068771408493985" cy="-2.515810846718533" r="0.5" fill="rgb(71, 55, 157)"/><circle class="node" cx="-6.9280636350131175" cy="-2.476315250142484" r="0.5" fill="rgb(62, 42, 115)"/><circle class="node" cx="-7.928498891943159" cy="-2.430917476551272" r="0.5" fill="rgb(51, 32, 74)"/><circle class="node" cx="-8.926827990521932" cy="-2.4149976064422387" r="0.5" fill="rgb(40, 26, 41)"/><circle class="node" cx="-9.921440677183183" cy="-2.4021463052103553" r="0.5" fill="rgb(205, 231, 56)"/><circle class="node" cx="9.15906332497168" cy="-3.949389924754414" r="0.5" fill="rgb(73, 247, 136)"/><circle class="node" cx="8.165125504123184" cy="-3.9102466034440226" r="0.5" fill="rgb(40, 26, 42)"/><circle class="node" cx="7.170437879283917" cy="-3.886236396654076" r="0.5" fill="rgb(35, 23, 27)"/><circle class="node" cx="6.1572252258103015" cy="-3.853618197105575" r="0.5" fill="rgb(35, 23, 27)"/><circle class="node" cx="5.134827032250847" cy="-3.8430685989520326" r="0.5" fill="rgb(58, 38, 98)"/><circle class="node" cx="4.105558084076375" cy="-3.844661843264862" r="0.5" fill="rgb(70, 54, 153)"/><circle class="node" cx="3.0580000640880334" cy="-3.8228353656018794" r="0.5" fill="rgb(74, 68, 188)"/><circle class="node" cx="2.0033521114280375" cy="-3.783900232874796" r="0.5" fill="rgb(75, 77, 205)"/><circle class="node" cx="0.9342560699838192" cy="-3.7331134974058506" r="0.5" fill="rgb(69, 103, 236)"/><circle class="node" cx="-0.16209476585591054" cy="-3.7030278023444905" r="0.5" fill="rgb(68, 107, 239)"/><circle class="node" cx="-1.2399373133464635" cy="-3.6705427722938193" r="0.5" fill="rgb(72, 95, 229)"/><circle class="node" cx="-2.304259273747304" cy="-3.621664119395113" r="0.5" fill="rgb(75, 75, 201)"/><circle class="node" cx="-3.35019434820083" cy="-3.57681285591913" r="0.5" fill="rgb(74, 65, 182)"/><circle class="node" cx="-4.395050223924864" cy="-3.5135281416349127" r="0.5" fill="rgb(73, 62, 173)"/><circle class="node" cx="-5.4205801750022" cy="-3.4504865759018633" r="0.5" fill="rgb(65, 46, 128)"/><circle class="node" cx="-6.432461714054786" cy="-3.3987184423501065" r="0.5" fill="rgb(51, 33, 77)"/><circle class="node" cx="-7.445054389065812" cy="-3.3558428325944307" r="0.5" fill="rgb(42, 27, 48)"/><circle class="node" cx="-8.446565124168414" cy="-3.3138094605906354" r="0.5" fill="rgb(35, 23, 27)"/><circle class="node" cx="-9.447359693065374" cy="-3.290433067250406" r="0.5" fill="rgb(64, 243, 146)"/><circle class="node" cx="8.621195269670269" cy="-4.809888954288933" r="0.5" fill="rgb(73, 247, 136)"/><circle class="node" cx="7.622005585236275" cy="-4.788561684174943" r="0.5" fill="rgb(37, 24, 34)"/><circle class="node" cx="6.6087532443584225" cy="-4.758799549431912" r="0.5" fill="rgb(35, 23, 27)"/><circle class="node" cx="5.601155523591383" cy="-4.739066607767682" r="0.5" fill="rgb(48, 31, 66)"/><circle class="node" cx="4.580775535100696" cy="-4.740881853133679" r="0.5" fill="rgb(64, 44, 122)"/><circle class="node" cx="3.547465036407311" cy="-4.727981479227181" r="0.5" fill="rgb(67, 48, 134)"/><circle class="node" cx="2.493965518784275" cy="-4.690650655590757" r="0.5" fill="rgb(74, 63, 177)"/><circle class="node" cx="1.4318843117284232" cy="-4.648227683985497" r="0.5" fill="rgb(75, 81, 211)"/><circle class="node" cx="0.3416065704434341" cy="-4.6103680659076" r="0.5" fill="rgb(74, 84, 215)"/><circle class="node" cx="-0.72347764169428" cy="-4.584645830343697" r="0.5" fill="rgb(75, 76, 202)"/><circle class="node" cx="-1.8038871545096027" cy="-4.550449746824534" r="0.5" fill="rgb(75, 79, 208)"/><circle class="node" cx="-2.8606468580370974" cy="-4.495741431108952" r="0.5" fill="rgb(74, 63, 177)"/><circle class="node" cx="-3.8967777468363436" cy="-4.467473932426806" r="0.5" fill="rgb(74, 64, 178)"/><circle class="node" cx="-4.928183719308817" cy="-4.40034219603492" r="0.5" fill="rgb(68, 51, 144)"/><circle class="node" cx="-5.94560079976587" cy="-4.324127690331744" r="0.5" fill="rgb(46, 29, 60)"/><circle class="node" cx="-6.955226140882474" cy="-4.267752001714958" r="0.5" fill="rgb(35, 23, 27)"/><circle class="node" cx="-7.9679024990987575" cy="-4.216626249307214" r="0.5" fill="rgb(35, 23, 27)"/><circle class="node" cx="-8.962463942386394" cy="-4.1800913359790535" r="0.5" fill="rgb(71, 246, 138)"/><circle class="node" cx="8.069096453033595" cy="-5.684279332379069" r="0.5" fill="rgb(74, 247, 135)"/><circle class="node" cx="7.06106778983198" cy="-5.662934695639021" r="0.5" fill="rgb(35, 23, 27)"/><circle class="node" cx="6.042472697146785" cy="-5.650881941084063" r="0.5" fill="rgb(40, 26, 42)"/><circle class="node" cx="5.031304295805574" cy="-5.6529695268132745" r="0.5" fill="rgb(51, 33, 76)"/><circle class="node" cx="4.002158252620717" cy="-5.641693918026484" r="0.5" fill="rgb(60, 40, 106)"/><circle class="node" cx="2.9688887306841907" cy="-5.6096388814684035" r="0.5" fill="rgb(70, 53, 151)"/><circle class="node" cx="1.914903267324126" cy="-5.56150585466705" r="0.5" fill="rgb(74, 65, 180)"/><circle class="node" cx="0.8467952319186849" cy="-5.5249345457147" r="0.5" fill="rgb(75, 70, 193)"/><circle class="node" cx="-0.21535695664881324" cy="-5.478609160068697" r="0.5" fill="rgb(69, 52, 149)"/><circle class="node" cx="-1.2814441652300606" cy="-5.4536078572017095" r="0.5" fill="rgb(72, 58, 164)"/><circle class="node" cx="-2.359503464264588" cy="-5.424090982103935" r="0.5" fill="rgb(74, 64, 179)"/><circle class="node" cx="-3.3967067347604885" cy="-5.386103808551063" r="0.5" fill="rgb(68, 50, 141)"/><circle class="node" cx="-4.4289398025003965" cy="-5.341507217694138" r="0.5" fill="rgb(64, 44, 122)"/><circle class="node" cx="-5.451945428211339" cy="-5.272354417817412" r="0.5" fill="rgb(60, 40, 106)"/><circle class="node" cx="-6.463895617385181" cy="-5.190623716408" r="0.5" fill="rgb(35, 23, 27)"/><circle class="node" cx="-7.472114207642298" cy="-5.127233492982527" r="0.5" fill="rgb(41, 27, 46)"/><circle class="node" cx="-8.476490628044724" cy="-5.07810748707682" r="0.5" fill="rgb(72, 247, 137)"/><circle class="node" cx="7.526174817610526" cy="-6.547751815784387" r="0.5" fill="rgb(71, 246, 138)"/><circle class="node" cx="6.5110478416243875" cy="-6.536184689556699" r="0.5" fill="rgb(44, 28, 54)"/><circle class="node" cx="5.493506121360251" cy="-6.549717229159513" r="0.5" fill="rgb(35, 23, 27)"/><circle class="node" cx="4.467656876561991" cy="-6.533457709558417" r="0.5" fill="rgb(35, 23, 27)"/><circle class="node" cx="3.4406046780396906" cy="-6.50442544097837" r="0.5" fill="rgb(59, 39, 102)"/><circle class="node" cx="2.3997238139037163" cy="-6.466936480961555" r="0.5" fill="rgb(58, 38, 98)"/><circle class="node" cx="1.3447122650197274" cy="-6.427499441238944" r="0.5" fill="rgb(65, 45, 126)"/><circle class="node" cx="0.28606492052258786" cy="-6.38129061861447" r="0.5" fill="rgb(63, 44, 121)"/><circle class="node" cx="-0.7744617823056799" cy="-6.3448250049871415" r="0.5" fill="rgb(64, 44, 122)"/><circle class="node" cx="-1.834544075224231" cy="-6.3135314299209" r="0.5" fill="rgb(66, 47, 132)"/><circle class="node" cx="-2.8994293067824737" cy="-6.289996174043393" r="0.5" fill="rgb(66, 47, 131)"/><circle class="node" cx="-3.92417172388567" cy="-6.26727933239115" r="0.5" fill="rgb(45, 29, 58)"/><circle class="node" cx="-4.957905678709562" cy="-6.201422213696442" r="0.5" fill="rgb(54, 35, 86)"/><circle class="node" cx="-5.9804061148154055" cy="-6.129359139910871" r="0.5" fill="rgb(39, 26, 41)"/><circle class="node" cx="-6.985495647382364" cy="-6.055439789401018" r="0.5" fill="rgb(49, 31, 69)"/><circle class="node" cx="-7.985942864673876" cy="-5.977959290583951" r="0.5" fill="rgb(72, 246, 137)"/><circle class="node" cx="6.98825440633521" cy="-7.39892856557977" r="0.5" fill="rgb(206, 231, 56)"/><circle class="node" cx="5.963923734673332" cy="-7.432200910757392" r="0.5" fill="rgb(43, 168, 240)"/><circle class="node" cx="4.937467992871655" cy="-7.417077213525757" r="0.5" fill="rgb(44, 28, 55)"/><circle class="node" cx="3.9096598930676327" cy="-7.400318493903943" r="0.5" fill="rgb(35, 23, 27)"/><circle class="node" cx="2.874242026162678" cy="-7.3665838419464515" r="0.5" fill="rgb(44, 28, 53)"/><circle class="node" cx="1.8446117620221787" cy="-7.3229185989400785" r="0.5" fill="rgb(50, 32, 73)"/><circle class="node" cx="0.7870428298055068" cy="-7.275692486700823" r="0.5" fill="rgb(54, 35, 85)"/><circle class="node" cx="-0.2596069340953697" cy="-7.227068487740172" r="0.5" fill="rgb(45, 29, 57)"/><circle class="node" cx="-1.3283536068203876" cy="-7.198407564277034" r="0.5" fill="rgb(50, 32, 73)"/><circle class="node" cx="-2.3877797043904154" cy="-7.180790615985481" r="0.5" fill="rgb(52, 33, 78)"/><circle class="node" cx="-3.4153485769849747" cy="-7.170227192903558" r="0.5" fill="rgb(46, 30, 61)"/><circle class="node" cx="-4.45821216573521" cy="-7.11291662590922" r="0.5" fill="rgb(35, 24, 30)"/><circle class="node" cx="-5.481985170957293" cy="-7.053330308236996" r="0.5" fill="rgb(37, 24, 33)"/><circle class="node" cx="-6.510991648762401" cy="-6.992920048001413" r="0.5" fill="rgb(42, 171, 238)"/><circle class="node" cx="-7.5157385544118105" cy="-6.88271992589303" r="0.5" fill="rgb(216, 225, 53)"/><circle class="node" cx="5.37842534123724" cy="-8.295804827854012" r="0.5" fill="rgb(70, 246, 139)"/><circle class="node" cx="4.3676999479664" cy="-8.279671577578027" r="0.5" fill="rgb(39, 26, 40)"/><circle class="node" cx="3.340891240010365" cy="-8.256124500605148" r="0.5" fill="rgb(40, 26, 43)"/><circle class="node" cx="2.3086425700167577" cy="-8.211059826651368" r="0.5" fill="rgb(35, 23, 27)"/><circle class="node" cx="1.2662706520998772" cy="-8.155286905223118" r="0.5" fill="rgb(35, 23, 27)"/><circle class="node" cx="0.22365813846272545" cy="-8.113266980816018" r="0.5" fill="rgb(35, 23, 27)"/><circle class="node" cx="-0.8166372046837764" cy="-8.068975015796067" r="0.5" fill="rgb(35, 23, 27)"/><circle class="node" cx="-1.8750145963990723" cy="-8.041493936934243" r="0.5" fill="rgb(35, 23, 27)"/><circle class="node" cx="-2.911668465558991" cy="-8.046287613668651" r="0.5" fill="rgb(38, 25, 36)"/><circle class="node" cx="-3.950888148179331" cy="-8.012989795633986" r="0.5" fill="rgb(35, 23, 27)"/><circle class="node" cx="-4.982036770955941" cy="-7.960126627385489" r="0.5" fill="rgb(52, 34, 80)"/><circle class="node" cx="-5.995121892663643" cy="-7.91262022258257" r="0.5" fill="rgb(78, 249, 130)"/><circle class="node" cx="4.820089476466056" cy="-9.156965424938676" r="0.5" fill="rgb(207, 230, 56)"/><circle class="node" cx="3.810607925116418" cy="-9.141716233709603" r="0.5" fill="rgb(78, 249, 130)"/><circle class="node" cx="2.765063411419212" cy="-9.105562861750647" r="0.5" fill="rgb(45, 163, 242)"/><circle class="node" cx="1.7330351549324439" cy="-9.052354263925912" r="0.5" fill="rgb(35, 24, 29)"/><circle class="node" cx="0.7095412645254178" cy="-9.002216740236463" r="0.5" fill="rgb(35, 23, 27)"/><circle class="node" cx="-0.3205383139096405" cy="-8.955328684983968" r="0.5" fill="rgb(36, 24, 31)"/><circle class="node" cx="-1.3584801838871878" cy="-8.921041608543407" r="0.5" fill="rgb(35, 23, 27)"/><circle class="node" cx="-2.3886528582598436" cy="-8.903605739930201" r="0.5" fill="rgb(36, 24, 31)"/><circle class="node" cx="-3.4285188397336475" cy="-8.899407104660277" r="0.5" fill="rgb(43, 168, 240)"/><circle class="node" cx="-4.481138620935629" cy="-8.850365772399229" r="0.5" fill="rgb(82, 250, 126)"/><circle class="node" cx="-5.510719292580467" cy="-8.802323869166523" r="0.5" fill="rgb(209, 229, 55)"/><circle class="node" cx="2.1790650954436863" cy="-9.93275310708065" r="0.5" fill="rgb(205, 231, 56)"/><circle class="node" cx="1.1693033306368334" cy="-9.888909724363119" r="0.5" fill="rgb(70, 246, 138)"/><circle class="node" cx="0.15457291923800032" cy="-9.841945376422798" r="0.5" fill="rgb(72, 247, 136)"/><circle class="node" cx="-0.8711324273916086" cy="-9.793667862172633" r="0.5" fill="rgb(71, 246, 138)"/><circle class="node" cx="-1.8759922497373374" cy="-9.776047481224822" r="0.5" fill="rgb(69, 245, 140)"/><circle class="node" cx="-2.878343974742363" cy="-9.763719144304753" r="0.5" fill="rgb(206, 231, 56)"/></svg>