<svg viewBox="-10,-10,20,20" width="900" height="500" xmlns="http://www.w3.org/2000/svg" xmlns:xlink="http://www.w3.org/1999/xlink"><circle class="node" cx="7.325" cy="-3.033974596215561" fill="rgb(255, 174, 37)" r="0.5"/><circle class="node" cx="8.299999999999999" cy="-3.033974596215561" fill="rgb(255, 138, 31)" r="0.5"/><circle class="node" cx="6.35" cy="-2.058974596215561" fill="rgb(229, 216, 48)" r="0.5"/><circle class="node" cx="7.325" cy="-2.058974596215561" fill="rgb(39, 181, 231)" r="0.5"/><circle class="node" cx="8.299999999999999" cy="-2.058974596215561" fill="rgb(135, 253, 88)" r="0.5"/><circle class="node" cx="4.3999999999999995" cy="-1.0839745962155614" fill="rgb(252, 188, 40)" r="0.5"/><circle class="node" cx="5.375" cy="-1.0839745962155614" fill="rgb(85, 250, 124)" r="0.5"/><circle class="node" cx="6.35" cy="-1.0839745962155614" fill="rgb(45, 163, 242)" r="0.5"/><circle class="node" cx="7.325" cy="-1.0839745962155614" fill="rgb(57, 133, 249)" r="0.5"/><circle class="node" cx="8.299999999999999" cy="-1.0839745962155614" fill="rgb(123, 253, 95)" r="0.5"/><circle class="node" cx="2.4499999999999997" cy="-0.10897459621556127" fill="rgb(252, 188, 40)" r="0.5"/><circle class="node" cx="3.425" cy="-0.10897459621556127" fill="rgb(85, 250, 124)" r="0.5"/><circle class="node" cx="4.3999999999999995" cy="-0.10897459621556127" fill="rgb(45, 164, 242)" r="0.5"/><circle class="node" cx="5.375" cy="-0.10897459621556127" fill="rgb(61, 125, 247)" r="0.5"/><circle class="node" cx="6.35" cy="-0.10897459621556127" fill="rgb(64, 118, 245)" r="0.5"/><circle class="node" cx="7.325" cy="-0.10897459621556127" fill="rgb(60, 127, 248)" r="0.5"/><circle class="node" cx="8.299999999999999" cy="-0.10897459621556127" fill="rgb(121, 254, 96)" r="0.5"/><circle class="node" cx="0.49999999999999994" cy="0.8660254037844387" fill="rgb(254, 186, 39)" r="0.5"/><circle class="node" cx="1.4749999999999999" cy="0.8660254037844387" fill="rgb(85, 250, 124)" r="0.5"/><circle class="node" cx="2.4499999999999997" cy="0.8660254037844387" fill="rgb(45, 164, 242)" r="0.5"/><circle class="node" cx="3.425" cy="0.8660254037844387" fill="rgb(61, 124, 247)" r="0.5"/><circle class="node" cx="4.3999999999999995" cy="0.8660254037844387" fill="rgb(64, 116, 245)" r="0.5"/><circle class="node" cx="5.375" cy="0.8660254037844387" fill="rgb(66, 114, 243)" r="0.5"/><circle class="node" cx="6.35" cy="0.8660254037844387" fill="rgb(65, 114, 243)" r="0.5"/><circle class="node" cx="7.325" cy="0.8660254037844387" fill="rgb(61, 125, 248)" r="0.5"/><circle class="node" cx="8.299999999999999" cy="0.8660254037844387" fill="rgb(120, 254, 97)" r="0.5"/><circle class="node" cx="-0.47500000000000003" cy="1.8410254037844387" fill="rgb(227, 217, 49)" r="0.5"/><circle class="node" cx="0.49999999999999994" cy="1.8410254037844387" fill="rgb(43, 168, 240)" r="0.5"/><circle class="node" cx="1.4749999999999999" cy="1.8410254037844387" fill="rgb(61, 125, 247)" r="0.5"/><circle class="node" cx="2.4499999999999997" cy="1.8410254037844387" fill="rgb(64, 116, 245)" r="0.5"/><circle class="node" cx="3.425" cy="1.8410254037844387" fill="rgb(66, 113, 243)" r="0.5"/><circle class="node" cx="4.3999999999999995" cy="1.8410254037844387" fill="rgb(66, 112, 242)" r="0.5"/><circle class="node" cx="5.375" cy="1.8410254037844387" fill="rgb(66, 112, 242)" r="0.5"/><circle class="node" cx="6.35" cy="1.8410254037844387" fill="rgb(66, 113, 243)" r="0.5"/><circle class="node" cx="7.325" cy="1.8410254037844387" fill="rgb(61, 125, 247)" r="0.5"/><circle class="node" cx="8.299999999999999" cy="1.8410254037844387" fill="rgb(120, 254, 97)" r="0.5"/><circle class="node" cx="-2.425" cy="2.8160254037844386" fill="rgb(252, 188, 40)" r="0.5"/><circle class="node" cx="-1.45" cy="2.8160254037844386" fill="rgb(84, 250, 124)" r="0.5"/><circle class="node" cx="-0.47500000000000003" cy="2.8160254037844386" fill="rgb(45, 161, 243)" r="0.5"/><circle class="node" cx="0.49999999999999994" cy="2.8160254037844386" fill="rgb(63, 119, 246)" r="0.5"/><circle class="node" cx="1.4749999999999999" cy="2.8160254037844386" fill="rgb(66, 113, 243)" r="0.5"/><circle class="node" cx="2.4499999999999997" cy="2.8160254037844386" fill="rgb(66, 112, 242)" r="0.5"/><circle class="node" cx="3.425" cy="2.8160254037844386" fill="rgb(66, 111, 242)" r="0.5"/><circle class="node" cx="4.3999999999999995" cy="2.8160254037844386" fill="rgb(67, 111, 242)" r="0.5"/><circle class="node" cx="5.375" cy="2.8160254037844386" fill="rgb(66, 111, 242)" r="0.5"/><circle class="node" cx="6.35" cy="2.8160254037844386" fill="rgb(66, 113, 243)" r="0.5"/><circle class="node" cx="7.325" cy="2.8160254037844386" fill="rgb(61, 125, 247)" r="0.5"/><circle class="node" cx="8.299999999999999" cy="2.8160254037844386" fill="rgb(120, 254, 97)" r="0.5"/><circle class="node" cx="-4.375" cy="3.7910254037844386" fill="rgb(254, 186, 39)" r="0.5"/><circle class="node" cx="-3.4" cy="3.7910254037844386" fill="rgb(85, 250, 123)" r="0.5"/><circle class="node" cx="-2.425" cy="3.7910254037844386" fill="rgb(45, 164, 242)" r="0.5"/><circle class="node" cx="-1.45" cy="3.7910254037844386" fill="rgb(61, 124, 247)" r="0.5"/><circle class="node" cx="-0.47500000000000003" cy="3.7910254037844386" fill="rgb(65, 116, 244)" r="0.5"/><circle class="node" cx="0.49999999999999994" cy="3.7910254037844386" fill="rgb(66, 113, 243)" r="0.5"/><circle class="node" cx="1.4749999999999999" cy="3.7910254037844386" fill="rgb(66, 111, 242)" r="0.5"/><circle class="node" cx="2.4499999999999997" cy="3.7910254037844386" fill="rgb(67, 111, 242)" r="0.5"/><circle class="node" cx="3.425" cy="3.7910254037844386" fill="rgb(67, 111, 242)" r="0.5"/><circle class="node" cx="4.3999999999999995" cy="3.7910254037844386" fill="rgb(67, 111, 242)" r="0.5"/><circle class="node" cx="5.375" cy="3.7910254037844386" fill="rgb(66, 111, 242)" r="0.5"/><circle class="node" cx="6.35" cy="3.7910254037844386" fill="rgb(66, 113, 243)" r="0.5"/><circle class="node" cx="7.325" cy="3.7910254037844386" fill="rgb(61, 125, 247)" r="0.5"/><circle class="node" cx="8.299999999999999" cy="3.7910254037844386" fill="rgb(120, 254, 97)" r="0.5"/><circle class="node" cx="-5.35" cy="4.766025403784439" fill="rgb(227, 217, 49)" r="0.5"/><circle class="node" cx="-4.375" cy="4.766025403784439" fill="rgb(43, 169, 239)" r="0.5"/><circle class="node" cx="-3.4" cy="4.766025403784439" fill="rgb(61, 125, 247)" r="0.5"/><circle class="node" cx="-2.425" cy="4.766025403784439" fill="rgb(64, 117, 245)" r="0.5"/><circle class="node" cx="-1.45" cy="4.766025403784439" fill="rgb(66, 113, 243)" r="0.5"/><circle class="node" cx="-0.47500000000000003" cy="4.766025403784439" fill="rgb(66, 112, 242)" r="0.5"/><circle class="node" cx="0.49999999999999994" cy="4.766025403784439" fill="rgb(66, 111, 242)" r="0.5"/><circle class="node" cx="1.4749999999999999" cy="4.766025403784439" fill="rgb(67, 111, 242)" r="0.5"/><circle class="node" cx="2.4499999999999997" cy="4.766025403784439" fill="rgb(67, 111, 242)" r="0.5"/><circle class="node" cx="3.425" cy="4.766025403784439" fill="rgb(67, 111, 242)" r="0.5"/><circle class="node" cx="4.3999999999999995" cy="4.766025403784439" fill="rgb(67, 111, 242)" r="0.5"/><circle class="node" cx="5.375" cy="4.766025403784439" fill="rgb(66, 111, 242)" r="0.5"/><circle class="node" cx="6.35" cy="4.766025403784439" fill="rgb(66, 113, 243)" r="0.5"/><circle class="node" cx="7.325" cy="4.766025403784439" fill="rgb(61, 125, 247)" r="0.5"/><circle class="node" cx="8.299999999999999" cy="4.766025403784439" fill="rgb(120, 254, 97)" r="0.5"/><circle class="node" cx="-7.3" cy="5.741025403784438" fill="rgb(255, 147, 32)" r="0.5"/><circle class="node" cx="-6.325" cy="5.741025403784438" fill="rgb(88, 251, 121)" r="0.5"/><circle class="node" cx="-5.35" cy="5.741025403784438" fill="rgb(45, 162, 243)" r="0.5"/><circle class="node" cx="-4.375" cy="5.741025403784438" fill="rgb(63, 120, 246)" r="0.5"/><circle class="node" cx="-3.4" cy="5.741025403784438" fill="rgb(65, 114, 243)" r="0.5"/><circle class="node" cx="-2.425" cy="5.741025403784438" fill="rgb(66, 112, 243)" r="0.5"/><circle class="node" cx="-1.45" cy="5.741025403784438" fill="rgb(66, 112, 242)" r="0.5"/><circle class="node" cx="-0.47500000000000003" cy="5.741025403784438" fill="rgb(66, 111, 242)" r="0.5"/><circle class="node" cx="0.49999999999999994" cy="5.741025403784438" fill="rgb(66, 111, 242)" r="0.5"/><circle class="node" cx="1.4749999999999999" cy="5.741025403784438" fill="rgb(66, 111, 242)" r="0.5"/><circle class="node" cx="2.4499999999999997" cy="5.741025403784438" fill="rgb(67, 111, 242)" r="0.5"/><circle class="node" cx="3.425" cy="5.741025403784438" fill="rgb(67, 111, 242)" r="0.5"/><circle class="node" cx="4.3999999999999995" cy="5.741025403784438" fill="rgb(66, 111, 242)" r="0.5"/><circle class="node" cx="5.375" cy="5.741025403784438" fill="rgb(66, 112, 242)" r="0.5"/><circle class="node" cx="6.35" cy="5.741025403784438" fill="rgb(66, 113, 243)" r="0.5"/><circle class="node" cx="7.325" cy="5.741025403784438" fill="rgb(61, 125, 247)" r="0.5"/><circle class="node" cx="8.299999999999999" cy="5.741025403784438" fill="rgb(120, 254, 97)" r="0.5"/><circle class="node" cx="-7.3" cy="6.716025403784438" fill="rgb(131, 253, 90)" r="0.5"/><circle class="node" cx="-6.325" cy="6.716025403784438" fill="rgb(56, 135, 249)" r="0.5"/><circle class="node" cx="-5.35" cy="6.716025403784438" fill="rgb(63, 119, 246)" r="0.5"/><circle class="node" cx="-4.375" cy="6.716025403784438" fill="rgb(65, 115, 244)" r="0.5"/><circle class="node" cx="-3.4" cy="6.716025403784438" fill="rgb(66, 114, 243)" r="0.5"/><circle class="node" cx="-2.425" cy="6.716025403784438" fill="rgb(66, 113, 243)" r="0.5"/><circle class="node" cx="-1.45" cy="6.716025403784438" fill="rgb(66, 113, 243)" r="0.5"/><circle class="node" cx="-0.47500000000000003" cy="6.716025403784438" fill="rgb(66, 113, 243)" r="0.5"/><circle class="node" cx="0.49999999999999994" cy="6.716025403784438" fill="rgb(66, 113, 243)" r="0.5"/><circle class="node" cx="1.4749999999999999" cy="6.716025403784438" fill="rgb(66, 113, 243)" r="0.5"/><circle class="node" cx="2.4499999999999997" cy="6.716025403784438" fill="rgb(66, 113, 243)" r="0.5"/><circle class="node" cx="3.425" cy="6.716025403784438" fill="rgb(66, 113, 243)" r="0.5"/><circle class="node" cx="4.3999999999999995" cy="6.716025403784438" fill="rgb(66, 113, 243)" r="0.5"/><circle class="node" cx="5.375" cy="6.716025403784438" fill="rgb(66, 113, 243)" r="0.5"/><circle class="node" cx="6.35" cy="6.716025403784438" fill="rgb(65, 115, 244)" r="0.5"/><circle class="node" cx="7.325" cy="6.716025403784438" fill="rgb(60, 126, 248)" r="0.5"/><circle class="node" cx="8.299999999999999" cy="6.716025403784438" fill="rgb(122, 254, 96)" r="0.5"/><circle class="node" cx="-7.3" cy="7.6910254037844386" fill="rgb(132, 253, 90)" r="0.5"/><circle class="node" cx="-6.325" cy="7.6910254037844386" fill="rgb(55, 138, 249)" r="0.5"/><circle class="node" cx="-5.35" cy="7.6910254037844386" fill="rgb(60, 127, 248)" r="0.5"/><circle class="node" cx="-4.375" cy="7.6910254037844386" fill="rgb(61, 126, 248)" r="0.5"/><circle class="node" cx="-3.4" cy="7.6910254037844386" fill="rgb(61, 125, 247)" r="0.5"/><circle class="node" cx="-2.425" cy="7.6910254037844386" fill="rgb(61, 125, 247)" r="0.5"/><circle class="node" cx="-1.45" cy="7.6910254037844386" fill="rgb(61, 125, 247)" r="0.5"/><circle class="node" cx="-0.47500000000000003" cy="7.6910254037844386" fill="rgb(61, 125, 247)" r="0.5"/><circle class="node" cx="0.49999999999999994" cy="7.6910254037844386" fill="rgb(61, 125, 247)" r="0.5"/><circle class="node" cx="1.4749999999999999" cy="7.6910254037844386" fill="rgb(61, 125, 247)" r="0.5"/><circle class="node" cx="2.4499999999999997" cy="7.6910254037844386" fill="rgb(61, 125, 247)" r="0.5"/><circle class="node" cx="3.425" cy="7.6910254037844386" fill="rgb(61, 125, 247)" r="0.5"/><circle class="node" cx="4.3999999999999995" cy="7.6910254037844386" fill="rgb(61, 125, 247)" r="0.5"/><circle class="node" cx="5.375" cy="7.6910254037844386" fill="rgb(61, 125, 247)" r="0.5"/><circle class="node" cx="6.35" cy="7.6910254037844386" fill="rgb(60, 126, 248)" r="0.5"/><circle class="node" cx="7.325" cy="7.6910254037844386" fill="rgb(55, 137, 249)" r="0.5"/><circle class="node" cx="8.299999999999999" cy="7.6910254037844386" fill="rgb(131, 253, 90)" r="0.5"/><circle class="node" cx="-7.3" cy="8.666025403784438" fill="rgb(255, 144, 32)" r="0.5"/><circle class="node" cx="-6.325" cy="8.666025403784438" fill="rgb(131, 253, 90)" r="0.5"/><circle class="node" cx="-5.35" cy="8.666025403784438" fill="rgb(122, 254, 96)" r="0.5"/><circle class="node" cx="-4.375" cy="8.666025403784438" fill="rgb(121, 254, 97)" r="0.5"/><circle class="node" cx="-3.4" cy="8.666025403784438" fill="rgb(120, 254, 97)" r="0.5"/><circle class="node" cx="-2.425" cy="8.666025403784438" fill="rgb(120, 254, 97)" r="0.5"/><circle class="node" cx="-1.45" cy="8.666025403784438" fill="rgb(120, 254, 97)" r="0.5"/><circle class="node" cx="-0.47500000000000003" cy="8.666025403784438" fill="rgb(120, 254, 97)" r="0.5"/><circle class="node" cx="0.49999999999999994" cy="8.666025403784438" fill="rgb(120, 254, 97)" r="0.5"/><circle class="node" cx="1.4749999999999999" cy="8.666025403784438" fill="rgb(120, 254, 97)" r="0.5"/><circle class="node" cx="2.4499999999999997" cy="8.666025403784438" fill="rgb(120, 254, 97)" r="0.5"/><circle class="node" cx="3.425" cy="8.666025403784438" fill="rgb(120, 254, 97)" r="0.5"/><circle class="node" cx="4.3999999999999995" cy="8.666025403784438" fill="rgb(120, 254, 97)" r="0.5"/><circle class="node" cx="5.375" cy="8.666025403784438" fill="rgb(120, 254, 97)" r="0.5"/><circle class="node" cx="6.35" cy="8.666025403784438" fill="rgb(122, 254, 96)" r="0.5"/><circle class="node" cx="7.325" cy="8.666025403784438" fill="rgb(131, 253, 90)" r="0.5"/><circle class="node" cx="8.299999999999999" cy="8.666025403784438" fill="rgb(255, 144, 32)" r="0.5"/><circle class="node" cx="-8.299999999999999" cy="-8.666025403784438" fill="rgb(255, 144, 32)" r="0.5"/><circle class="node" cx="-7.325" cy="-8.666025403784438" fill="rgb(131, 253, 90)" r="0.5"/><circle class="node" cx="-6.35" cy="-8.666025403784438" fill="rgb(122, 254, 96)" r="0.5"/><circle class="node" cx="-5.375" cy="-8.666025403784438" fill="rgb(120, 254, 97)" r="0.5"/><circle class="node" cx="-4.3999999999999995" cy="-8.666025403784438" fill="rgb(120, 254, 97)" r="0.5"/><circle class="node" cx="-3.425" cy="-8.666025403784438" fill="rgb(120, 254, 97)" r="0.5"/><circle class="node" cx="-2.4499999999999997" cy="-8.666025403784438" fill="rgb(120, 254, 97)" r="0.5"/><circle class="node" cx="-1.4749999999999999" cy="-8.666025403784438" fill="rgb(120, 254, 97)" r="0.5"/><circle class="node" cx="-0.49999999999999994" cy="-8.666025403784438" fill="rgb(120, 254, 97)" r="0.5"/><circle class="node" cx="0.47500000000000003" cy="-8.666025403784438" fill="rgb(120, 254, 97)" r="0.5"/><circle class="node" cx="1.45" cy="-8.666025403784438" fill="rgb(120, 254, 97)" r="0.5"/><circle class="node" cx="2.425" cy="-8.666025403784438" fill="rgb(120, 254, 97)" r="0.5"/><circle class="node" cx="3.4" cy="-8.666025403784438" fill="rgb(120, 254, 97)" r="0.5"/><circle class="node" cx="4.375" cy="-8.666025403784438" fill="rgb(121, 254, 97)" r="0.5"/><circle class="node" cx="5.35" cy="-8.666025403784438" fill="rgb(122, 254, 96)" r="0.5"/><circle class="node" cx="6.325" cy="-8.666025403784438" fill="rgb(131, 253, 90)" r="0.5"/><circle class="node" cx="7.3" cy="-8.666025403784438" fill="rgb(255, 144, 32)" r="0.5"/><circle class="node" cx="-8.299999999999999" cy="-7.6910254037844386" fill="rgb(131, 253, 90)" r="0.5"/><circle class="node" cx="-7.325" cy="-7.6910254037844386" fill="rgb(55, 137, 249)" r="0.5"/><circle class="node" cx="-6.35" cy="-7.6910254037844386" fill="rgb(60, 126, 248)" r="0.5"/><circle class="node" cx="-5.375" cy="-7.6910254037844386" fill="rgb(61, 125, 247)" r="0.5"/><circle class="node" cx="-4.3999999999999995" cy="-7.6910254037844386" fill="rgb(61, 125, 247)" r="0.5"/><circle class="node" cx="-3.425" cy="-7.6910254037844386" fill="rgb(61, 125, 247)" r="0.5"/><circle class="node" cx="-2.4499999999999997" cy="-7.6910254037844386" fill="rgb(61, 125, 247)" r="0.5"/><circle class="node" cx="-1.4749999999999999" cy="-7.6910254037844386" fill="rgb(61, 125, 247)" r="0.5"/><circle class="node" cx="-0.49999999999999994" cy="-7.6910254037844386" fill="rgb(61, 125, 247)" r="0.5"/><circle class="node" cx="0.47500000000000003" cy="-7.6910254037844386" fill="rgb(61, 125, 247)" r="0.5"/><circle class="node" cx="1.45" cy="-7.6910254037844386" fill="rgb(61, 125, 247)" r="0.5"/><circle class="node" cx="2.425" cy="-7.6910254037844386" fill="rgb(61, 125, 247)" r="0.5"/><circle class="node" cx="3.4" cy="-7.6910254037844386" fill="rgb(61, 125, 247)" r="0.5"/><circle class="node" cx="4.375" cy="-7.6910254037844386" fill="rgb(61, 126, 248)" r="0.5"/><circle class="node" cx="5.35" cy="-7.6910254037844386" fill="rgb(60, 127, 248)" r="0.5"/><circle class="node" cx="6.325" cy="-7.6910254037844386" fill="rgb(55, 138, 249)" r="0.5"/><circle class="node" cx="7.3" cy="-7.6910254037844386" fill="rgb(132, 253, 90)" r="0.5"/><circle class="node" cx="-8.299999999999999" cy="-6.716025403784438" fill="rgb(122, 254, 96)" r="0.5"/><circle class="node" cx="-7.325" cy="-6.716025403784438" fill="rgb(60, 126, 248)" r="0.5"/><circle class="node" cx="-6.35" cy="-6.716025403784438" fill="rgb(65, 115, 244)" r="0.5"/><circle class="node" cx="-5.375" cy="-6.716025403784438" fill="rgb(66, 113, 243)" r="0.5"/><circle class="node" cx="-4.3999999999999995" cy="-6.716025403784438" fill="rgb(66, 113, 243)" r="0.5"/><circle class="node" cx="-3.425" cy="-6.716025403784438" fill="rgb(66, 113, 243)" r="0.5"/><circle class="node" cx="-2.4499999999999997" cy="-6.716025403784438" fill="rgb(66, 113, 243)" r="0.5"/><circle class="node" cx="-1.4749999999999999" cy="-6.716025403784438" fill="rgb(66, 113, 243)" r="0.5"/><circle class="node" cx="-0.49999999999999994" cy="-6.716025403784438" fill="rgb(66, 113, 243)" r="0.5"/><circle class="node" cx="0.47500000000000003" cy="-6.716025403784438" fill="rgb(66, 113, 243)" r="0.5"/><circle class="node" cx="1.45" cy="-6.716025403784438" fill="rgb(66, 113, 243)" r="0.5"/><circle class="node" cx="2.425" cy="-6.716025403784438" fill="rgb(66, 113, 243)" r="0.5"/><circle class="node" cx="3.4" cy="-6.716025403784438" fill="rgb(66, 114, 243)" r="0.5"/><circle class="node" cx="4.375" cy="-6.716025403784438" fill="rgb(65, 115, 244)" r="0.5"/><circle class="node" cx="5.35" cy="-6.716025403784438" fill="rgb(63, 119, 246)" r="0.5"/><circle class="node" cx="6.325" cy="-6.716025403784438" fill="rgb(56, 135, 249)" r="0.5"/><circle class="node" cx="7.3" cy="-6.716025403784438" fill="rgb(131, 253, 90)" r="0.5"/><circle class="node" cx="-8.299999999999999" cy="-5.741025403784438" fill="rgb(120, 254, 97)" r="0.5"/><circle class="node" cx="-7.325" cy="-5.741025403784438" fill="rgb(61, 125, 247)" r="0.5"/><circle class="node" cx="-6.35" cy="-5.741025403784438" fill="rgb(66, 113, 243)" r="0.5"/><circle class="node" cx="-5.375" cy="-5.741025403784438" fill="rgb(66, 112, 242)" r="0.5"/><circle class="node" cx="-4.3999999999999995" cy="-5.741025403784438" fill="rgb(66, 111, 242)" r="0.5"/><circle class="node" cx="-3.425" cy="-5.741025403784438" fill="rgb(67, 111, 242)" r="0.5"/><circle class="node" cx="-2.4499999999999997" cy="-5.741025403784438" fill="rgb(67, 111, 242)" r="0.5"/><circle class="node" cx="-1.4749999999999999" cy="-5.741025403784438" fill="rgb(66, 111, 242)" r="0.5"/><circle class="node" cx="-0.49999999999999994" cy="-5.741025403784438" fill="rgb(66, 111, 242)" r="0.5"/><circle class="node" cx="0.47500000000000003" cy="-5.741025403784438" fill="rgb(66, 111, 242)" r="0.5"/><circle class="node" cx="1.45" cy="-5.741025403784438" fill="rgb(66, 112, 242)" r="0.5"/><circle class="node" cx="2.425" cy="-5.741025403784438" fill="rgb(66, 112, 243)" r="0.5"/><circle class="node" cx="3.4" cy="-5.741025403784438" fill="rgb(65, 114, 243)" r="0.5"/><circle class="node" cx="4.375" cy="-5.741025403784438" fill="rgb(63, 120, 246)" r="0.5"/><circle class="node" cx="5.35" cy="-5.741025403784438" fill="rgb(45, 162, 243)" r="0.5"/><circle class="node" cx="6.325" cy="-5.741025403784438" fill="rgb(88, 251, 121)" r="0.5"/><circle class="node" cx="7.3" cy="-5.741025403784438" fill="rgb(255, 147, 32)" r="0.5"/><circle class="node" cx="-8.299999999999999" cy="-4.766025403784439" fill="rgb(120, 254, 97)" r="0.5"/><circle class="node" cx="-7.325" cy="-4.766025403784439" fill="rgb(61, 125, 247)" r="0.5"/><circle class="node" cx="-6.35" cy="-4.766025403784439" fill="rgb(66, 113, 243)" r="0.5"/><circle class="node" cx="-5.375" cy="-4.766025403784439" fill="rgb(66, 111, 242)" r="0.5"/><circle class="node" cx="-4.3999999999999995" cy="-4.766025403784439" fill="rgb(67, 111, 242)" r="0.5"/><circle class="node" cx="-3.425" cy="-4.766025403784439" fill="rgb(67, 111, 242)" r="0.5"/><circle class="node" cx="-2.4499999999999997" cy="-4.766025403784439" fill="rgb(67, 111, 242)" r="0.5"/><circle class="node" cx="-1.4749999999999999" cy="-4.766025403784439" fill="rgb(67, 111, 242)" r="0.5"/><circle class="node" cx="-0.49999999999999994" cy="-4.766025403784439" fill="rgb(66, 111, 242)" r="0.5"/><circle class="node" cx="0.47500000000000003" cy="-4.766025403784439" fill="rgb(66, 112, 242)" r="0.5"/><circle class="node" cx="1.45" cy="-4.766025403784439" fill="rgb(66, 113, 243)" r="0.5"/><circle class="node" cx="2.425" cy="-4.766025403784439" fill="rgb(64, 117, 245)" r="0.5"/><circle class="node" cx="3.4" cy="-4.766025403784439" fill="rgb(61, 125, 247)" r="0.5"/><circle class="node" cx="4.375" cy="-4.766025403784439" fill="rgb(43, 169, 239)" r="0.5"/><circle class="node" cx="5.35" cy="-4.766025403784439" fill="rgb(227, 217, 49)" r="0.5"/><circle class="node" cx="-8.299999999999999" cy="-3.7910254037844386" fill="rgb(120, 254, 97)" r="0.5"/><circle class="node" cx="-7.325" cy="-3.7910254037844386" fill="rgb(61, 125, 247)" r="0.5"/><circle class="node" cx="-6.35" cy="-3.7910254037844386" fill="rgb(66, 113, 243)" r="0.5"/><circle class="node" cx="-5.375" cy="-3.7910254037844386" fill="rgb(66, 111, 242)" r="0.5"/><circle class="node" cx="-4.3999999999999995" cy="-3.7910254037844386" fill="rgb(67, 111, 242)" r="0.5"/><circle class="node" cx="-3.425" cy="-3.7910254037844386" fill="rgb(67, 111, 242)" r="0.5"/><circle class="node" cx="-2.4499999999999997" cy="-3.7910254037844386" fill="rgb(66, 111, 242)" r="0.5"/><circle class="node" cx="-1.4749999999999999" cy="-3.7910254037844386" fill="rgb(66, 112, 242)" r="0.5"/><circle class="node" cx="-0.49999999999999994" cy="-3.7910254037844386" fill="rgb(66, 113, 243)" r="0.5"/><circle class="node" cx="0.47500000000000003" cy="-3.7910254037844386" fill="rgb(64, 116, 245)" r="0.5"/><circle class="node" cx="1.45" cy="-3.7910254037844386" fill="rgb(61, 124, 247)" r="0.5"/><circle class="node" cx="2.425" cy="-3.7910254037844386" fill="rgb(44, 164, 242)" r="0.5"/><circle class="node" cx="3.4" cy="-3.7910254037844386" fill="rgb(85, 250, 123)" r="0.5"/><circle class="node" cx="4.375" cy="-3.7910254037844386" fill="rgb(254, 186, 39)" r="0.5"/><circle class="node" cx="-8.299999999999999" cy="-2.8160254037844386" fill="rgb(120, 254, 97)" r="0.5"/><circle class="node" cx="-7.325" cy="-2.8160254037844386" fill="rgb(61, 125, 247)" r="0.5"/><circle class="node" cx="-6.35" cy="-2.8160254037844386" fill="rgb(66, 113, 243)" r="0.5"/><circle class="node" cx="-5.375" cy="-2.8160254037844386" fill="rgb(66, 111, 242)" r="0.5"/><circle class="node" cx="-4.3999999999999995" cy="-2.8160254037844386" fill="rgb(67, 111, 242)" r="0.5"/><circle class="node" cx="-3.425" cy="-2.8160254037844386" fill="rgb(66, 111, 242)" r="0.5"/><circle class="node" cx="-2.4499999999999997" cy="-2.8160254037844386" fill="rgb(66, 113, 243)" r="0.5"/><circle class="node" cx="-1.4749999999999999" cy="-2.8160254037844386" fill="rgb(65, 116, 244)" r="0.5"/><circle class="node" cx="-0.49999999999999994" cy="-2.8160254037844386" fill="rgb(61, 124, 247)" r="0.5"/><circle class="node" cx="0.47500000000000003" cy="-2.8160254037844386" fill="rgb(45, 164, 242)" r="0.5"/><circle class="node" cx="1.45" cy="-2.8160254037844386" fill="rgb(85, 250, 124)" r="0.5"/><circle class="node" cx="2.425" cy="-2.8160254037844386" fill="rgb(252, 188, 40)" r="0.5"/><circle class="node" cx="-8.299999999999999" cy="-1.8410254037844387" fill="rgb(120, 254, 97)" r="0.5"/><circle class="node" cx="-7.325" cy="-1.8410254037844387" fill="rgb(61, 125, 247)" r="0.5"/><circle class="node" cx="-6.35" cy="-1.8410254037844387" fill="rgb(66, 113, 243)" r="0.5"/><circle class="node" cx="-5.375" cy="-1.8410254037844387" fill="rgb(66, 112, 242)" r="0.5"/><circle class="node" cx="-4.3999999999999995" cy="-1.8410254037844387" fill="rgb(66, 112, 242)" r="0.5"/><circle class="node" cx="-3.425" cy="-1.8410254037844387" fill="rgb(66, 113, 243)" r="0.5"/><circle class="node" cx="-2.4499999999999997" cy="-1.8410254037844387" fill="rgb(63, 119, 246)" r="0.5"/><circle class="node" cx="-1.4749999999999999" cy="-1.8410254037844387" fill="rgb(45, 161, 243)" r="0.5"/><circle class="node" cx="-0.49999999999999994" cy="-1.8410254037844387" fill="rgb(84, 250, 124)" r="0.5"/><circle class="node" cx="0.47500000000000003" cy="-1.8410254037844387" fill="rgb(252, 188, 40)" r="0.5"/><circle class="node" cx="-8.299999999999999" cy="-0.8660254037844387" fill="rgb(120, 254, 97)" r="0.5"/><circle class="node" cx="-7.325" cy="-0.8660254037844387" fill="rgb(61, 125, 248)" r="0.5"/><circle class="node" cx="-6.35" cy="-0.8660254037844387" fill="rgb(65, 114, 243)" r="0.5"/><circle class="node" cx="-5.375" cy="-0.8660254037844387" fill="rgb(66, 114, 243)" r="0.5"/><circle class="node" cx="-4.3999999999999995" cy="-0.8660254037844387" fill="rgb(64, 117, 245)" r="0.5"/><circle class="node" cx="-3.425" cy="-0.8660254037844387" fill="rgb(61, 125, 247)" r="0.5"/><circle class="node" cx="-2.4499999999999997" cy="-0.8660254037844387" fill="rgb(43, 168, 240)" r="0.5"/><circle class="node" cx="-1.4749999999999999" cy="-0.8660254037844387" fill="rgb(227, 217, 49)" r="0.5"/><circle class="node" cx="-8.299999999999999" cy="0.10897459621556127" fill="rgb(121, 254, 96)" r="0.5"/><circle class="node" cx="-7.325" cy="0.10897459621556127" fill="rgb(60, 127, 248)" r="0.5"/><circle class="node" cx="-6.35" cy="0.10897459621556127" fill="rgb(64, 118, 245)" r="0.5"/><circle class="node" cx="-5.375" cy="0.10897459621556127" fill="rgb(61, 125, 247)" r="0.5"/><circle class="node" cx="-4.3999999999999995" cy="0.10897459621556127" fill="rgb(44, 164, 242)" r="0.5"/><circle class="node" cx="-3.425" cy="0.10897459621556127" fill="rgb(85, 250, 123)" r="0.5"/><circle class="node" cx="-2.4499999999999997" cy="0.10897459621556127" fill="rgb(254, 186, 39)" r="0.5"/><circle class="node" cx="-8.299999999999999" cy="1.0839745962155614" fill="rgb(123, 253, 95)" r="0.5"/><circle class="node" cx="-7.325" cy="1.0839745962155614" fill="rgb(57, 133, 249)" r="0.5"/><circle class="node" cx="-6.35" cy="1.0839745962155614" fill="rgb(45, 163, 242)" r="0.5"/><circle class="node" cx="-5.375" cy="1.0839745962155614" fill="rgb(85, 250, 124)" r="0.5"/><circle class="node" cx="-4.3999999999999995" cy="1.0839745962155614" fill="rgb(252, 188, 40)" r="0.5"/><circle class="node" cx="-8.299999999999999" cy="2.058974596215561" fill="rgb(135, 253, 88)" r="0.5"/><circle class="node" cx="-7.325" cy="2.058974596215561" fill="rgb(39, 181, 231)" r="0.5"/><circle class="node" cx="-6.35" cy="2.058974596215561" fill="rgb(229, 216, 48)" r="0.5"/><circle class="node" cx="-8.299999999999999" cy="3.033974596215561" fill="rgb(255, 138, 31)" r="0.5"/><circle class="node" cx="-7.325" cy="3.033974596215561" fill="rgb(255, 174, 37)" r="0.5"/><line x1="10.825317547305485" y1="-6.249999999999999" x2="-10.825317547305485" y2="6.249999999999999" style="stroke: black; stroke-width: 0.05; stroke-dasharray: 0.25;"/></svg>